<mxfile host="app.diagrams.net" agent="Mozilla/5.0 (Windows NT 10.0; Win64; x64) AppleWebKit/537.36 (KHTML, like Gecko) Chrome/132.0.0.0 Safari/537.36 Edg/132.0.0.0" version="26.0.10" pages="12">
  <diagram id="C5RBs43oDa-KdzZeNtuy" name="1.1 Precio de producto">
    <mxGraphModel dx="786" dy="463" grid="0" gridSize="10" guides="1" tooltips="1" connect="1" arrows="1" fold="1" page="0" pageScale="1" pageWidth="827" pageHeight="1169" background="none" math="0" shadow="1">
      <root>
        <mxCell id="WIyWlLk6GJQsqaUBKTNV-0" />
        <mxCell id="WIyWlLk6GJQsqaUBKTNV-1" parent="WIyWlLk6GJQsqaUBKTNV-0" />
        <mxCell id="Obw097ToTMqEyQhcVUvm-2" value="&lt;span class=&quot;notion-enable-hover&quot; data-token-index=&quot;0&quot; style=&quot;color: rgb(55, 53, 47); isolation: auto;&quot;&gt;&lt;font style=&quot;font-size: 10px;&quot;&gt;&amp;nbsp; &amp;nbsp; “Indique el precio de producto”&lt;/font&gt;&lt;/span&gt;" style="shape=display;whiteSpace=wrap;html=1;labelBackgroundColor=none;fillColor=#B1DDF0;strokeColor=#BAC8D3;fontColor=#182E3E;" parent="WIyWlLk6GJQsqaUBKTNV-1" vertex="1">
          <mxGeometry x="52.5" y="90" width="95" height="40" as="geometry" />
        </mxCell>
        <mxCell id="Obw097ToTMqEyQhcVUvm-3" value="&lt;font style=&quot;font-size: 10px;&quot;&gt;Precio de producto&lt;/font&gt;" style="shape=parallelogram;perimeter=parallelogramPerimeter;whiteSpace=wrap;html=1;fixedSize=1;labelBackgroundColor=none;fillColor=#B1DDF0;strokeColor=#BAC8D3;fontColor=#182E3E;" parent="WIyWlLk6GJQsqaUBKTNV-1" vertex="1">
          <mxGeometry x="30" y="165" width="120" height="20" as="geometry" />
        </mxCell>
        <mxCell id="Obw097ToTMqEyQhcVUvm-5" value="&lt;font style=&quot;font-size: 10px;&quot;&gt;precio_de_producto &amp;lt; 100&lt;/font&gt;" style="rhombus;whiteSpace=wrap;html=1;labelBackgroundColor=none;fillColor=#B1DDF0;strokeColor=#BAC8D3;fontColor=#182E3E;" parent="WIyWlLk6GJQsqaUBKTNV-1" vertex="1">
          <mxGeometry x="330" y="130" width="140" height="80" as="geometry" />
        </mxCell>
        <mxCell id="Obw097ToTMqEyQhcVUvm-12" value="" style="endArrow=classic;html=1;rounded=0;labelBackgroundColor=none;fontColor=default;exitX=0.25;exitY=1;exitDx=0;exitDy=0;strokeColor=#EEEEEE;" parent="WIyWlLk6GJQsqaUBKTNV-1" edge="1">
          <mxGeometry width="50" height="50" relative="1" as="geometry">
            <mxPoint x="70" y="60" as="sourcePoint" />
            <mxPoint x="110" y="90" as="targetPoint" />
            <Array as="points">
              <mxPoint x="110" y="60" />
            </Array>
          </mxGeometry>
        </mxCell>
        <mxCell id="Obw097ToTMqEyQhcVUvm-19" value="" style="endArrow=classic;html=1;rounded=0;exitX=0;exitY=0;exitDx=46.25;exitDy=40;exitPerimeter=0;labelBackgroundColor=none;fontColor=default;strokeColor=#EEEEEE;" parent="WIyWlLk6GJQsqaUBKTNV-1" source="Obw097ToTMqEyQhcVUvm-2" edge="1">
          <mxGeometry width="50" height="50" relative="1" as="geometry">
            <mxPoint x="75" y="170" as="sourcePoint" />
            <mxPoint x="99" y="160" as="targetPoint" />
          </mxGeometry>
        </mxCell>
        <mxCell id="Obw097ToTMqEyQhcVUvm-20" value="" style="endArrow=classic;html=1;rounded=0;labelBackgroundColor=none;fontColor=default;strokeColor=#EEEEEE;" parent="WIyWlLk6GJQsqaUBKTNV-1" edge="1">
          <mxGeometry width="50" height="50" relative="1" as="geometry">
            <mxPoint x="150" y="170" as="sourcePoint" />
            <mxPoint x="320" y="170" as="targetPoint" />
          </mxGeometry>
        </mxCell>
        <mxCell id="Obw097ToTMqEyQhcVUvm-21" value="&lt;font style=&quot;font-size: 10px;&quot;&gt;descuento =&amp;nbsp;precio_de_producto * 0.10&lt;/font&gt;" style="rounded=0;whiteSpace=wrap;html=1;labelBackgroundColor=none;fillColor=#B1DDF0;strokeColor=#BAC8D3;fontColor=#182E3E;" parent="WIyWlLk6GJQsqaUBKTNV-1" vertex="1">
          <mxGeometry x="40" y="240" width="180" height="50" as="geometry" />
        </mxCell>
        <mxCell id="Obw097ToTMqEyQhcVUvm-22" value="&lt;font style=&quot;font-size: 10px;&quot;&gt;descuento =&amp;nbsp;precio_de_producto * 0.02&lt;/font&gt;" style="rounded=0;whiteSpace=wrap;html=1;labelBackgroundColor=none;fillColor=#B1DDF0;strokeColor=#BAC8D3;fontColor=#182E3E;" parent="WIyWlLk6GJQsqaUBKTNV-1" vertex="1">
          <mxGeometry x="530" y="220" width="180" height="50" as="geometry" />
        </mxCell>
        <mxCell id="Obw097ToTMqEyQhcVUvm-24" value="&lt;font style=&quot;font-size: 10px;&quot;&gt;precio_final =precio_de_producto - descuento&lt;/font&gt;" style="rounded=0;whiteSpace=wrap;html=1;labelBackgroundColor=none;fillColor=#B1DDF0;strokeColor=#BAC8D3;fontColor=#182E3E;" parent="WIyWlLk6GJQsqaUBKTNV-1" vertex="1">
          <mxGeometry x="300" y="290" width="160" height="50" as="geometry" />
        </mxCell>
        <mxCell id="Obw097ToTMqEyQhcVUvm-25" value="Verdadero" style="text;html=1;align=center;verticalAlign=middle;resizable=0;points=[];autosize=1;strokeColor=none;fillColor=none;labelBackgroundColor=none;fontColor=#182E3E;" parent="WIyWlLk6GJQsqaUBKTNV-1" vertex="1">
          <mxGeometry x="520" y="160" width="80" height="30" as="geometry" />
        </mxCell>
        <mxCell id="Obw097ToTMqEyQhcVUvm-26" value="Falso" style="text;html=1;align=center;verticalAlign=middle;resizable=0;points=[];autosize=1;strokeColor=none;fillColor=none;labelBackgroundColor=none;fontColor=#182E3E;" parent="WIyWlLk6GJQsqaUBKTNV-1" vertex="1">
          <mxGeometry x="245" y="178" width="50" height="30" as="geometry" />
        </mxCell>
        <mxCell id="Obw097ToTMqEyQhcVUvm-28" value="" style="endArrow=none;html=1;rounded=0;entryX=0.124;entryY=0.65;entryDx=0;entryDy=0;entryPerimeter=0;exitX=0.953;exitY=0.467;exitDx=0;exitDy=0;exitPerimeter=0;labelBackgroundColor=none;fontColor=default;strokeColor=#EEEEEE;" parent="WIyWlLk6GJQsqaUBKTNV-1" source="Obw097ToTMqEyQhcVUvm-26" target="Obw097ToTMqEyQhcVUvm-5" edge="1">
          <mxGeometry width="50" height="50" relative="1" as="geometry">
            <mxPoint x="310" y="240" as="sourcePoint" />
            <mxPoint x="360" y="190" as="targetPoint" />
          </mxGeometry>
        </mxCell>
        <mxCell id="Obw097ToTMqEyQhcVUvm-29" value="" style="endArrow=classic;html=1;rounded=0;exitX=-0.007;exitY=0.711;exitDx=0;exitDy=0;exitPerimeter=0;labelBackgroundColor=none;fontColor=default;strokeColor=#EEEEEE;" parent="WIyWlLk6GJQsqaUBKTNV-1" source="Obw097ToTMqEyQhcVUvm-26" edge="1">
          <mxGeometry width="50" height="50" relative="1" as="geometry">
            <mxPoint x="310" y="240" as="sourcePoint" />
            <mxPoint x="190" y="230" as="targetPoint" />
            <Array as="points" />
          </mxGeometry>
        </mxCell>
        <mxCell id="Obw097ToTMqEyQhcVUvm-30" value="" style="endArrow=none;html=1;rounded=0;entryX=1;entryY=0.5;entryDx=0;entryDy=0;labelBackgroundColor=none;fontColor=default;strokeColor=#EEEEEE;" parent="WIyWlLk6GJQsqaUBKTNV-1" target="Obw097ToTMqEyQhcVUvm-5" edge="1">
          <mxGeometry width="50" height="50" relative="1" as="geometry">
            <mxPoint x="520" y="170" as="sourcePoint" />
            <mxPoint x="360" y="190" as="targetPoint" />
          </mxGeometry>
        </mxCell>
        <mxCell id="Obw097ToTMqEyQhcVUvm-31" value="" style="endArrow=classic;html=1;rounded=0;exitX=0.783;exitY=1.022;exitDx=0;exitDy=0;exitPerimeter=0;entryX=0.315;entryY=-0.027;entryDx=0;entryDy=0;entryPerimeter=0;labelBackgroundColor=none;fontColor=default;strokeColor=#EEEEEE;" parent="WIyWlLk6GJQsqaUBKTNV-1" source="Obw097ToTMqEyQhcVUvm-25" target="Obw097ToTMqEyQhcVUvm-22" edge="1">
          <mxGeometry width="50" height="50" relative="1" as="geometry">
            <mxPoint x="310" y="240" as="sourcePoint" />
            <mxPoint x="360" y="190" as="targetPoint" />
          </mxGeometry>
        </mxCell>
        <mxCell id="Obw097ToTMqEyQhcVUvm-32" value="" style="endArrow=classic;html=1;rounded=0;exitX=1;exitY=0.5;exitDx=0;exitDy=0;labelBackgroundColor=none;fontColor=default;strokeColor=#EEEEEE;" parent="WIyWlLk6GJQsqaUBKTNV-1" source="Obw097ToTMqEyQhcVUvm-21" edge="1">
          <mxGeometry width="50" height="50" relative="1" as="geometry">
            <mxPoint x="310" y="240" as="sourcePoint" />
            <mxPoint x="290" y="290" as="targetPoint" />
          </mxGeometry>
        </mxCell>
        <mxCell id="Obw097ToTMqEyQhcVUvm-33" value="" style="endArrow=classic;html=1;rounded=0;exitX=0;exitY=0.5;exitDx=0;exitDy=0;labelBackgroundColor=none;fontColor=default;strokeColor=#EEEEEE;" parent="WIyWlLk6GJQsqaUBKTNV-1" source="Obw097ToTMqEyQhcVUvm-22" edge="1">
          <mxGeometry width="50" height="50" relative="1" as="geometry">
            <mxPoint x="310" y="240" as="sourcePoint" />
            <mxPoint x="470" y="290" as="targetPoint" />
          </mxGeometry>
        </mxCell>
        <mxCell id="Obw097ToTMqEyQhcVUvm-36" value="&lt;font style=&quot;font-size: 10px;&quot;&gt;“El precio final del producto es de” precio_final&lt;/font&gt;" style="shape=display;whiteSpace=wrap;html=1;labelBackgroundColor=none;fillColor=#B1DDF0;strokeColor=#BAC8D3;fontColor=#182E3E;" parent="WIyWlLk6GJQsqaUBKTNV-1" vertex="1">
          <mxGeometry x="290" y="370" width="180" height="90" as="geometry" />
        </mxCell>
        <mxCell id="Obw097ToTMqEyQhcVUvm-37" value="" style="endArrow=classic;html=1;rounded=0;fontColor=default;exitX=0.5;exitY=1;exitDx=0;exitDy=0;labelBackgroundColor=none;strokeColor=#EEEEEE;" parent="WIyWlLk6GJQsqaUBKTNV-1" source="Obw097ToTMqEyQhcVUvm-24" edge="1">
          <mxGeometry width="50" height="50" relative="1" as="geometry">
            <mxPoint x="310" y="310" as="sourcePoint" />
            <mxPoint x="380" y="360" as="targetPoint" />
          </mxGeometry>
        </mxCell>
        <mxCell id="Obw097ToTMqEyQhcVUvm-39" value="" style="endArrow=classic;html=1;rounded=0;fontColor=default;exitX=0;exitY=0;exitDx=90;exitDy=90;exitPerimeter=0;entryX=0.5;entryY=0;entryDx=0;entryDy=0;labelBackgroundColor=none;strokeColor=#EEEEEE;" parent="WIyWlLk6GJQsqaUBKTNV-1" source="Obw097ToTMqEyQhcVUvm-36" edge="1">
          <mxGeometry width="50" height="50" relative="1" as="geometry">
            <mxPoint x="310" y="410" as="sourcePoint" />
            <mxPoint x="380" y="490" as="targetPoint" />
          </mxGeometry>
        </mxCell>
        <mxCell id="6aEhytc6WWRU7StaPwzq-0" value="Inicio" style="rounded=1;whiteSpace=wrap;html=1;arcSize=50;labelBackgroundColor=none;fillColor=#B1DDF0;strokeColor=#BAC8D3;fontColor=#182E3E;" parent="WIyWlLk6GJQsqaUBKTNV-1" vertex="1">
          <mxGeometry y="50" width="70" height="30" as="geometry" />
        </mxCell>
        <mxCell id="WhS8Rd18x0mxGdbZGfo--0" value="Fin" style="rounded=1;whiteSpace=wrap;html=1;arcSize=50;labelBackgroundColor=none;fillColor=#B1DDF0;strokeColor=#BAC8D3;fontColor=#182E3E;" parent="WIyWlLk6GJQsqaUBKTNV-1" vertex="1">
          <mxGeometry x="345" y="490" width="70" height="30" as="geometry" />
        </mxCell>
      </root>
    </mxGraphModel>
  </diagram>
  <diagram id="xXOgxW2m8XJ4yEHu8JWA" name="1.2 Tiempo en segundos">
    <mxGraphModel dx="1186" dy="863" grid="0" gridSize="10" guides="1" tooltips="1" connect="1" arrows="1" fold="1" page="0" pageScale="1" pageWidth="827" pageHeight="1169" math="0" shadow="0">
      <root>
        <mxCell id="0" />
        <mxCell id="1" parent="0" />
        <mxCell id="POBm9ZevLTd3kmue4TAj-1" value="&lt;span class=&quot;notion-enable-hover&quot; data-token-index=&quot;0&quot; style=&quot;color:rgba(55, 53, 47, 1);isolation:auto&quot;&gt;tiempo_en_segundos&lt;/span&gt;" style="shape=parallelogram;perimeter=parallelogramPerimeter;whiteSpace=wrap;html=1;fixedSize=1;labelBackgroundColor=none;fillColor=#B1DDF0;strokeColor=#BAC8D3;fontColor=#182E3E;" parent="1" vertex="1">
          <mxGeometry x="80" y="-30" width="200" height="50" as="geometry" />
        </mxCell>
        <mxCell id="POBm9ZevLTd3kmue4TAj-2" value="&lt;span class=&quot;notion-enable-hover&quot; data-token-index=&quot;0&quot; style=&quot;color:rgba(55, 53, 47, 1);isolation:auto&quot;&gt;“Indique el tiempo en segundos”&lt;/span&gt;" style="shape=display;whiteSpace=wrap;html=1;labelBackgroundColor=none;fillColor=#B1DDF0;strokeColor=#BAC8D3;fontColor=#182E3E;" parent="1" vertex="1">
          <mxGeometry x="80" y="-120" width="200" height="60" as="geometry" />
        </mxCell>
        <mxCell id="-hu-zZGJmL3-ItVGShxT-1" value="&lt;span class=&quot;notion-enable-hover&quot; data-token-index=&quot;0&quot; style=&quot;color:rgba(55, 53, 47, 1);isolation:auto&quot;&gt;tiempo_en_segundos &amp;lt; 600&lt;/span&gt;" style="rhombus;whiteSpace=wrap;html=1;labelBackgroundColor=none;fillColor=#B1DDF0;strokeColor=#BAC8D3;fontColor=#182E3E;" parent="1" vertex="1">
          <mxGeometry x="85" y="55" width="190" height="80" as="geometry" />
        </mxCell>
        <mxCell id="Nj4k52ERsUei1XU8fkID-1" value="&lt;span class=&quot;notion-enable-hover&quot; data-token-index=&quot;0&quot; style=&quot;color:rgba(55, 53, 47, 1);isolation:auto&quot;&gt;segundos_faltantes = 600 - tiempo_en_segundos&lt;/span&gt;" style="rounded=1;whiteSpace=wrap;html=1;labelBackgroundColor=none;fillColor=#B1DDF0;strokeColor=#BAC8D3;fontColor=#182E3E;" parent="1" vertex="1">
          <mxGeometry x="320" y="150" width="290" height="50" as="geometry" />
        </mxCell>
        <mxCell id="Nj4k52ERsUei1XU8fkID-4" value="Verdadero" style="text;html=1;align=center;verticalAlign=middle;whiteSpace=wrap;rounded=0;labelBackgroundColor=none;fontColor=#182E3E;" parent="1" vertex="1">
          <mxGeometry x="340" y="80" width="70" height="30" as="geometry" />
        </mxCell>
        <mxCell id="Nj4k52ERsUei1XU8fkID-5" value="&amp;nbsp; &amp;nbsp; &amp;nbsp;“Los segundos faltantes para 10 minutos son” segundos_faltantes" style="shape=display;whiteSpace=wrap;html=1;labelBackgroundColor=none;fillColor=#B1DDF0;strokeColor=#BAC8D3;fontColor=#182E3E;" parent="1" vertex="1">
          <mxGeometry x="350" y="240" width="230" height="70" as="geometry" />
        </mxCell>
        <mxCell id="Nj4k52ERsUei1XU8fkID-6" value="&lt;span class=&quot;notion-enable-hover&quot; data-token-index=&quot;0&quot; style=&quot;color:rgba(55, 53, 47, 1);isolation:auto&quot;&gt;tiempo_en_segundos == 600&lt;/span&gt;" style="rhombus;whiteSpace=wrap;html=1;labelBackgroundColor=none;fillColor=#B1DDF0;strokeColor=#BAC8D3;fontColor=#182E3E;" parent="1" vertex="1">
          <mxGeometry x="-220" y="135" width="210" height="70" as="geometry" />
        </mxCell>
        <mxCell id="Nj4k52ERsUei1XU8fkID-7" value="&amp;nbsp; &amp;nbsp; &amp;nbsp;“Los segundos indicados no son ni menor o mayor a 10 minutos”" style="shape=display;whiteSpace=wrap;html=1;labelBackgroundColor=none;fillColor=#B1DDF0;strokeColor=#BAC8D3;fontColor=#182E3E;" parent="1" vertex="1">
          <mxGeometry x="-90" y="255" width="240" height="80" as="geometry" />
        </mxCell>
        <mxCell id="Nj4k52ERsUei1XU8fkID-8" value="“Mayor”" style="shape=display;whiteSpace=wrap;html=1;labelBackgroundColor=none;fillColor=#B1DDF0;strokeColor=#BAC8D3;fontColor=#182E3E;" parent="1" vertex="1">
          <mxGeometry x="-380" y="280" width="80" height="30" as="geometry" />
        </mxCell>
        <mxCell id="Nj4k52ERsUei1XU8fkID-9" value="Verdadero" style="text;html=1;align=center;verticalAlign=middle;whiteSpace=wrap;rounded=0;labelBackgroundColor=none;fontColor=#182E3E;" parent="1" vertex="1">
          <mxGeometry x="20" y="200" width="60" height="30" as="geometry" />
        </mxCell>
        <mxCell id="Nj4k52ERsUei1XU8fkID-10" value="Falso" style="text;html=1;align=center;verticalAlign=middle;whiteSpace=wrap;rounded=0;labelBackgroundColor=none;fontColor=#182E3E;" parent="1" vertex="1">
          <mxGeometry x="-350" y="205" width="70" height="45" as="geometry" />
        </mxCell>
        <mxCell id="Nj4k52ERsUei1XU8fkID-11" value="" style="endArrow=classic;html=1;rounded=0;fontColor=default;exitX=0.5;exitY=1;exitDx=0;exitDy=0;labelBackgroundColor=none;strokeColor=#EEEEEE;" parent="1" edge="1">
          <mxGeometry width="50" height="50" relative="1" as="geometry">
            <mxPoint x="190" y="-150" as="sourcePoint" />
            <mxPoint x="190" y="-120" as="targetPoint" />
          </mxGeometry>
        </mxCell>
        <mxCell id="Nj4k52ERsUei1XU8fkID-12" value="" style="endArrow=classic;html=1;rounded=0;fontColor=default;exitX=0.504;exitY=1.023;exitDx=0;exitDy=0;exitPerimeter=0;entryX=0.5;entryY=0;entryDx=0;entryDy=0;labelBackgroundColor=none;strokeColor=#EEEEEE;" parent="1" source="POBm9ZevLTd3kmue4TAj-2" target="POBm9ZevLTd3kmue4TAj-1" edge="1">
          <mxGeometry width="50" height="50" relative="1" as="geometry">
            <mxPoint x="170" y="140" as="sourcePoint" />
            <mxPoint x="190" y="-30" as="targetPoint" />
          </mxGeometry>
        </mxCell>
        <mxCell id="Nj4k52ERsUei1XU8fkID-13" value="" style="endArrow=classic;html=1;rounded=0;fontColor=default;exitX=0.5;exitY=1;exitDx=0;exitDy=0;entryX=0.5;entryY=0;entryDx=0;entryDy=0;labelBackgroundColor=none;strokeColor=#EEEEEE;" parent="1" source="POBm9ZevLTd3kmue4TAj-1" target="-hu-zZGJmL3-ItVGShxT-1" edge="1">
          <mxGeometry width="50" height="50" relative="1" as="geometry">
            <mxPoint x="170" y="140" as="sourcePoint" />
            <mxPoint x="220" y="90" as="targetPoint" />
          </mxGeometry>
        </mxCell>
        <mxCell id="Nj4k52ERsUei1XU8fkID-14" value="" style="endArrow=none;html=1;rounded=0;fontColor=default;exitX=1;exitY=0.5;exitDx=0;exitDy=0;entryX=0;entryY=0.5;entryDx=0;entryDy=0;labelBackgroundColor=none;strokeColor=#EEEEEE;" parent="1" source="-hu-zZGJmL3-ItVGShxT-1" target="Nj4k52ERsUei1XU8fkID-4" edge="1">
          <mxGeometry width="50" height="50" relative="1" as="geometry">
            <mxPoint x="170" y="140" as="sourcePoint" />
            <mxPoint x="220" y="90" as="targetPoint" />
          </mxGeometry>
        </mxCell>
        <mxCell id="Nj4k52ERsUei1XU8fkID-15" value="" style="endArrow=classic;html=1;rounded=0;fontColor=default;exitX=0.5;exitY=1;exitDx=0;exitDy=0;entryX=0.186;entryY=0;entryDx=0;entryDy=0;entryPerimeter=0;labelBackgroundColor=none;strokeColor=#EEEEEE;" parent="1" source="Nj4k52ERsUei1XU8fkID-4" target="Nj4k52ERsUei1XU8fkID-1" edge="1">
          <mxGeometry width="50" height="50" relative="1" as="geometry">
            <mxPoint x="170" y="140" as="sourcePoint" />
            <mxPoint x="374" y="140" as="targetPoint" />
          </mxGeometry>
        </mxCell>
        <mxCell id="Nj4k52ERsUei1XU8fkID-16" value="" style="endArrow=none;html=1;rounded=0;fontColor=default;exitX=0;exitY=0.5;exitDx=0;exitDy=0;entryX=1;entryY=0.5;entryDx=0;entryDy=0;labelBackgroundColor=none;strokeColor=#EEEEEE;" parent="1" source="-hu-zZGJmL3-ItVGShxT-1" edge="1">
          <mxGeometry width="50" height="50" relative="1" as="geometry">
            <mxPoint x="170" y="140" as="sourcePoint" />
            <mxPoint x="40" y="96.25" as="targetPoint" />
          </mxGeometry>
        </mxCell>
        <mxCell id="Nj4k52ERsUei1XU8fkID-20" value="Falso" style="text;html=1;align=center;verticalAlign=middle;whiteSpace=wrap;rounded=0;labelBackgroundColor=none;fontColor=#182E3E;" parent="1" vertex="1">
          <mxGeometry x="-30" y="72.5" width="70" height="45" as="geometry" />
        </mxCell>
        <mxCell id="Nj4k52ERsUei1XU8fkID-23" value="" style="edgeStyle=segmentEdgeStyle;endArrow=classic;html=1;curved=0;rounded=0;endSize=8;startSize=8;fontColor=default;entryX=0.5;entryY=0;entryDx=0;entryDy=0;exitX=0;exitY=0.5;exitDx=0;exitDy=0;labelBackgroundColor=none;strokeColor=#EEEEEE;" parent="1" source="Nj4k52ERsUei1XU8fkID-20" target="Nj4k52ERsUei1XU8fkID-6" edge="1">
          <mxGeometry width="50" height="50" relative="1" as="geometry">
            <mxPoint x="170" y="140" as="sourcePoint" />
            <mxPoint x="220" y="90" as="targetPoint" />
          </mxGeometry>
        </mxCell>
        <mxCell id="Nj4k52ERsUei1XU8fkID-24" value="" style="endArrow=none;html=1;rounded=0;fontColor=default;exitX=1;exitY=1;exitDx=0;exitDy=0;entryX=0;entryY=0.5;entryDx=0;entryDy=0;labelBackgroundColor=none;strokeColor=#EEEEEE;" parent="1" source="Nj4k52ERsUei1XU8fkID-6" target="Nj4k52ERsUei1XU8fkID-9" edge="1">
          <mxGeometry width="50" height="50" relative="1" as="geometry">
            <mxPoint x="170" y="140" as="sourcePoint" />
            <mxPoint x="220" y="90" as="targetPoint" />
          </mxGeometry>
        </mxCell>
        <mxCell id="Nj4k52ERsUei1XU8fkID-25" value="" style="endArrow=classic;html=1;rounded=0;fontColor=default;exitX=0.25;exitY=1;exitDx=0;exitDy=0;entryX=0;entryY=0;entryDx=130.00000000000003;entryDy=0;entryPerimeter=0;labelBackgroundColor=none;strokeColor=#EEEEEE;" parent="1" source="Nj4k52ERsUei1XU8fkID-9" target="Nj4k52ERsUei1XU8fkID-7" edge="1">
          <mxGeometry width="50" height="50" relative="1" as="geometry">
            <mxPoint x="170" y="140" as="sourcePoint" />
            <mxPoint x="220" y="90" as="targetPoint" />
          </mxGeometry>
        </mxCell>
        <mxCell id="Nj4k52ERsUei1XU8fkID-26" value="" style="endArrow=none;html=1;rounded=0;fontColor=default;exitX=0;exitY=1;exitDx=0;exitDy=0;entryX=1;entryY=0;entryDx=0;entryDy=0;labelBackgroundColor=none;strokeColor=#EEEEEE;" parent="1" source="Nj4k52ERsUei1XU8fkID-6" target="Nj4k52ERsUei1XU8fkID-10" edge="1">
          <mxGeometry width="50" height="50" relative="1" as="geometry">
            <mxPoint x="170" y="140" as="sourcePoint" />
            <mxPoint x="220" y="90" as="targetPoint" />
          </mxGeometry>
        </mxCell>
        <mxCell id="Nj4k52ERsUei1XU8fkID-27" value="" style="endArrow=classic;html=1;rounded=0;fontColor=default;exitX=0.5;exitY=1;exitDx=0;exitDy=0;entryX=0.498;entryY=-0.035;entryDx=0;entryDy=0;entryPerimeter=0;labelBackgroundColor=none;strokeColor=#EEEEEE;" parent="1" source="Nj4k52ERsUei1XU8fkID-1" target="Nj4k52ERsUei1XU8fkID-5" edge="1">
          <mxGeometry width="50" height="50" relative="1" as="geometry">
            <mxPoint x="170" y="140" as="sourcePoint" />
            <mxPoint x="220" y="90" as="targetPoint" />
          </mxGeometry>
        </mxCell>
        <mxCell id="Nj4k52ERsUei1XU8fkID-28" value="" style="endArrow=classic;html=1;rounded=0;fontColor=default;exitX=0.5;exitY=1;exitDx=0;exitDy=0;entryX=0;entryY=0;entryDx=42.5;entryDy=0;entryPerimeter=0;labelBackgroundColor=none;strokeColor=#EEEEEE;" parent="1" source="Nj4k52ERsUei1XU8fkID-10" target="Nj4k52ERsUei1XU8fkID-8" edge="1">
          <mxGeometry width="50" height="50" relative="1" as="geometry">
            <mxPoint x="170" y="140" as="sourcePoint" />
            <mxPoint x="-317" y="270" as="targetPoint" />
          </mxGeometry>
        </mxCell>
        <mxCell id="cqNtHrajwbOFaWeRiccJ-1" value="" style="endArrow=classic;html=1;rounded=0;fontColor=default;exitX=0;exitY=0;exitDx=57.50000000000001;exitDy=70;exitPerimeter=0;entryX=1;entryY=0;entryDx=0;entryDy=0;labelBackgroundColor=none;strokeColor=#EEEEEE;" parent="1" source="Nj4k52ERsUei1XU8fkID-5" edge="1">
          <mxGeometry width="50" height="50" relative="1" as="geometry">
            <mxPoint x="170" y="140" as="sourcePoint" />
            <mxPoint x="230" y="390" as="targetPoint" />
          </mxGeometry>
        </mxCell>
        <mxCell id="cqNtHrajwbOFaWeRiccJ-2" value="" style="endArrow=classic;html=1;rounded=0;fontColor=default;exitX=0;exitY=0;exitDx=200.00000000000003;exitDy=80;exitPerimeter=0;entryX=0.25;entryY=0;entryDx=0;entryDy=0;labelBackgroundColor=none;strokeColor=#EEEEEE;" parent="1" source="Nj4k52ERsUei1XU8fkID-7" edge="1">
          <mxGeometry width="50" height="50" relative="1" as="geometry">
            <mxPoint x="170" y="140" as="sourcePoint" />
            <mxPoint x="140" y="390" as="targetPoint" />
          </mxGeometry>
        </mxCell>
        <mxCell id="cqNtHrajwbOFaWeRiccJ-3" value="" style="edgeStyle=segmentEdgeStyle;endArrow=classic;html=1;curved=0;rounded=0;endSize=8;startSize=8;fontColor=default;exitX=0;exitY=0;exitDx=42.5;exitDy=30.000000000000004;exitPerimeter=0;entryX=0;entryY=0.5;entryDx=0;entryDy=0;labelBackgroundColor=none;strokeColor=#EEEEEE;" parent="1" source="Nj4k52ERsUei1XU8fkID-8" edge="1">
          <mxGeometry width="50" height="50" relative="1" as="geometry">
            <mxPoint x="170" y="140" as="sourcePoint" />
            <mxPoint x="110" y="419.9999999999998" as="targetPoint" />
            <Array as="points">
              <mxPoint x="-337" y="420" />
            </Array>
          </mxGeometry>
        </mxCell>
        <mxCell id="3Xnx84xhn2e-mhdADQPl-1" value="Inicio" style="rounded=1;whiteSpace=wrap;html=1;arcSize=50;labelBackgroundColor=none;fillColor=#B1DDF0;strokeColor=#BAC8D3;fontColor=#182E3E;" parent="1" vertex="1">
          <mxGeometry x="160" y="-180" width="70" height="30" as="geometry" />
        </mxCell>
        <mxCell id="aLD_oSNk6NDNl8CrOh4M-1" value="Fin" style="rounded=1;whiteSpace=wrap;html=1;arcSize=50;labelBackgroundColor=none;fillColor=#B1DDF0;strokeColor=#BAC8D3;fontColor=#182E3E;" parent="1" vertex="1">
          <mxGeometry x="120" y="400" width="100" height="40" as="geometry" />
        </mxCell>
      </root>
    </mxGraphModel>
  </diagram>
  <diagram id="0gfG3tBskm_zwhXEIzTA" name="1.3 Un numero al usuario y muestre la suma de todos los números desde 1 hasta ese número.">
    <mxGraphModel dx="786" dy="863" grid="0" gridSize="10" guides="1" tooltips="1" connect="1" arrows="1" fold="1" page="0" pageScale="1" pageWidth="827" pageHeight="1169" math="0" shadow="0">
      <root>
        <mxCell id="0" />
        <mxCell id="1" parent="0" />
        <mxCell id="-6pqOpcItPJVd6BCEw1w-1" value="Fin" style="rounded=1;whiteSpace=wrap;html=1;arcSize=50;labelBackgroundColor=none;fillColor=#B1DDF0;strokeColor=#BAC8D3;fontColor=#182E3E;" parent="1" vertex="1">
          <mxGeometry x="50" y="280" width="70" height="30" as="geometry" />
        </mxCell>
        <mxCell id="DhT4uTh2uoKUJcFQT_RJ-1" value="Inicio" style="rounded=1;whiteSpace=wrap;html=1;arcSize=50;labelBackgroundColor=none;fillColor=#B1DDF0;strokeColor=#BAC8D3;fontColor=#182E3E;" parent="1" vertex="1">
          <mxGeometry x="40" y="-330" width="70" height="30" as="geometry" />
        </mxCell>
        <mxCell id="DhT4uTh2uoKUJcFQT_RJ-2" value="&lt;span class=&quot;notion-enable-hover&quot; data-token-index=&quot;0&quot; style=&quot;color:rgba(55, 53, 47, 1);isolation:auto&quot;&gt;“Escriba un número”&lt;/span&gt;" style="shape=display;whiteSpace=wrap;html=1;labelBackgroundColor=none;fillColor=#B1DDF0;strokeColor=#BAC8D3;fontColor=#182E3E;" parent="1" vertex="1">
          <mxGeometry x="10" y="-270" width="130" height="50" as="geometry" />
        </mxCell>
        <mxCell id="DhT4uTh2uoKUJcFQT_RJ-3" value="&lt;span class=&quot;notion-enable-hover&quot; data-token-index=&quot;0&quot; style=&quot;color:rgba(55, 53, 47, 1);isolation:auto&quot;&gt;numero&lt;/span&gt;" style="shape=parallelogram;perimeter=parallelogramPerimeter;whiteSpace=wrap;html=1;fixedSize=1;labelBackgroundColor=none;fillColor=#B1DDF0;strokeColor=#BAC8D3;fontColor=#182E3E;" parent="1" vertex="1">
          <mxGeometry x="20" y="-190" width="110" height="40" as="geometry" />
        </mxCell>
        <mxCell id="DhT4uTh2uoKUJcFQT_RJ-4" value="&#xa;&lt;span class=&quot;notion-enable-hover&quot; data-token-index=&quot;0&quot; style=&quot;color:rgba(55, 53, 47, 1);isolation:auto&quot;&gt;suma = 0&lt;/span&gt;&#xa;&#xa;" style="rounded=0;whiteSpace=wrap;html=1;labelBackgroundColor=none;fillColor=#B1DDF0;strokeColor=#BAC8D3;fontColor=#182E3E;" parent="1" vertex="1">
          <mxGeometry x="20" y="-120" width="110" height="50" as="geometry" />
        </mxCell>
        <mxCell id="DhT4uTh2uoKUJcFQT_RJ-5" value="&lt;span class=&quot;notion-enable-hover&quot; data-token-index=&quot;0&quot; style=&quot;color:rgba(55, 53, 47, 1);isolation:auto&quot;&gt;contador = 1&lt;/span&gt;" style="rounded=0;whiteSpace=wrap;html=1;labelBackgroundColor=none;fillColor=#B1DDF0;strokeColor=#BAC8D3;fontColor=#182E3E;" parent="1" vertex="1">
          <mxGeometry x="25" y="-40" width="100" height="30" as="geometry" />
        </mxCell>
        <mxCell id="DhT4uTh2uoKUJcFQT_RJ-7" value="contador &amp;lt;= numero" style="rhombus;whiteSpace=wrap;html=1;labelBackgroundColor=none;fillColor=#B1DDF0;strokeColor=#BAC8D3;fontColor=#182E3E;" parent="1" vertex="1">
          <mxGeometry x="270" y="-65" width="220" height="80" as="geometry" />
        </mxCell>
        <mxCell id="DhT4uTh2uoKUJcFQT_RJ-8" value="suma = suma + contador" style="rounded=0;whiteSpace=wrap;html=1;labelBackgroundColor=none;fillColor=#B1DDF0;strokeColor=#BAC8D3;fontColor=#182E3E;" parent="1" vertex="1">
          <mxGeometry x="390" y="75" width="180" height="45" as="geometry" />
        </mxCell>
        <mxCell id="DhT4uTh2uoKUJcFQT_RJ-10" value="contador = contador + 1" style="rounded=0;whiteSpace=wrap;html=1;labelBackgroundColor=none;fillColor=#B1DDF0;strokeColor=#BAC8D3;fontColor=#182E3E;" parent="1" vertex="1">
          <mxGeometry x="80" y="80" width="150" height="40" as="geometry" />
        </mxCell>
        <mxCell id="DhT4uTh2uoKUJcFQT_RJ-11" value="&amp;nbsp; &amp;nbsp; &amp;nbsp; &amp;nbsp; “La suma de todos los números desde 1 hasta el número indicado es” suma" style="shape=display;whiteSpace=wrap;html=1;labelBackgroundColor=none;fillColor=#B1DDF0;strokeColor=#BAC8D3;fontColor=#182E3E;" parent="1" vertex="1">
          <mxGeometry x="60" y="180" width="330" height="60" as="geometry" />
        </mxCell>
        <mxCell id="ncH9lBuyGDEs40Vm6WBE-1" value="" style="endArrow=classic;html=1;rounded=0;fontColor=default;exitX=0.5;exitY=1;exitDx=0;exitDy=0;labelBackgroundColor=none;strokeColor=#EEEEEE;" parent="1" source="DhT4uTh2uoKUJcFQT_RJ-1" edge="1">
          <mxGeometry width="50" height="50" relative="1" as="geometry">
            <mxPoint x="60" y="30" as="sourcePoint" />
            <mxPoint x="75" y="-270" as="targetPoint" />
          </mxGeometry>
        </mxCell>
        <mxCell id="ncH9lBuyGDEs40Vm6WBE-2" value="" style="endArrow=classic;html=1;rounded=0;fontColor=default;exitX=0;exitY=0;exitDx=68.75;exitDy=50;exitPerimeter=0;labelBackgroundColor=none;strokeColor=#EEEEEE;" parent="1" source="DhT4uTh2uoKUJcFQT_RJ-2" edge="1">
          <mxGeometry width="50" height="50" relative="1" as="geometry">
            <mxPoint x="60" y="30" as="sourcePoint" />
            <mxPoint x="79" y="-190" as="targetPoint" />
          </mxGeometry>
        </mxCell>
        <mxCell id="ncH9lBuyGDEs40Vm6WBE-3" value="" style="endArrow=classic;html=1;rounded=0;fontColor=default;exitX=0.5;exitY=1;exitDx=0;exitDy=0;entryX=0.5;entryY=0;entryDx=0;entryDy=0;labelBackgroundColor=none;strokeColor=#EEEEEE;" parent="1" source="DhT4uTh2uoKUJcFQT_RJ-3" target="DhT4uTh2uoKUJcFQT_RJ-4" edge="1">
          <mxGeometry width="50" height="50" relative="1" as="geometry">
            <mxPoint x="60" y="30" as="sourcePoint" />
            <mxPoint x="110" y="-20" as="targetPoint" />
          </mxGeometry>
        </mxCell>
        <mxCell id="ncH9lBuyGDEs40Vm6WBE-4" value="" style="endArrow=classic;html=1;rounded=0;fontColor=default;exitX=0.5;exitY=1;exitDx=0;exitDy=0;entryX=0.5;entryY=0;entryDx=0;entryDy=0;labelBackgroundColor=none;strokeColor=#EEEEEE;" parent="1" source="DhT4uTh2uoKUJcFQT_RJ-4" target="DhT4uTh2uoKUJcFQT_RJ-5" edge="1">
          <mxGeometry width="50" height="50" relative="1" as="geometry">
            <mxPoint x="60" y="30" as="sourcePoint" />
            <mxPoint x="110" y="-20" as="targetPoint" />
          </mxGeometry>
        </mxCell>
        <mxCell id="ncH9lBuyGDEs40Vm6WBE-5" value="" style="endArrow=classic;html=1;rounded=0;fontColor=default;exitX=1;exitY=0.5;exitDx=0;exitDy=0;entryX=0;entryY=0.5;entryDx=0;entryDy=0;labelBackgroundColor=none;strokeColor=#EEEEEE;" parent="1" source="DhT4uTh2uoKUJcFQT_RJ-5" target="DhT4uTh2uoKUJcFQT_RJ-7" edge="1">
          <mxGeometry width="50" height="50" relative="1" as="geometry">
            <mxPoint x="60" y="30" as="sourcePoint" />
            <mxPoint x="110" y="-20" as="targetPoint" />
          </mxGeometry>
        </mxCell>
        <mxCell id="ncH9lBuyGDEs40Vm6WBE-7" value="" style="endArrow=classic;html=1;rounded=0;fontColor=default;exitX=0;exitY=0;exitDx=191.25;exitDy=60.00000000000001;exitPerimeter=0;entryX=1;entryY=0.5;entryDx=0;entryDy=0;labelBackgroundColor=none;strokeColor=#EEEEEE;" parent="1" source="DhT4uTh2uoKUJcFQT_RJ-11" target="-6pqOpcItPJVd6BCEw1w-1" edge="1">
          <mxGeometry width="50" height="50" relative="1" as="geometry">
            <mxPoint x="60" y="30" as="sourcePoint" />
            <mxPoint x="110" y="-20" as="targetPoint" />
          </mxGeometry>
        </mxCell>
        <mxCell id="ncH9lBuyGDEs40Vm6WBE-8" value="Verdadero" style="text;html=1;align=center;verticalAlign=middle;whiteSpace=wrap;rounded=0;labelBackgroundColor=none;fontColor=#182E3E;" parent="1" vertex="1">
          <mxGeometry x="530" y="-40" width="60" height="30" as="geometry" />
        </mxCell>
        <mxCell id="ncH9lBuyGDEs40Vm6WBE-9" value="" style="endArrow=none;html=1;rounded=0;fontColor=default;exitX=1;exitY=0.5;exitDx=0;exitDy=0;entryX=0;entryY=0.5;entryDx=0;entryDy=0;labelBackgroundColor=none;strokeColor=#EEEEEE;" parent="1" source="DhT4uTh2uoKUJcFQT_RJ-7" target="ncH9lBuyGDEs40Vm6WBE-8" edge="1">
          <mxGeometry width="50" height="50" relative="1" as="geometry">
            <mxPoint x="60" y="30" as="sourcePoint" />
            <mxPoint x="110" y="-20" as="targetPoint" />
          </mxGeometry>
        </mxCell>
        <mxCell id="ncH9lBuyGDEs40Vm6WBE-11" value="" style="endArrow=classic;html=1;rounded=0;fontColor=default;exitX=0.5;exitY=1;exitDx=0;exitDy=0;entryX=0.5;entryY=0;entryDx=0;entryDy=0;labelBackgroundColor=none;strokeColor=#EEEEEE;" parent="1" source="ncH9lBuyGDEs40Vm6WBE-8" target="DhT4uTh2uoKUJcFQT_RJ-8" edge="1">
          <mxGeometry width="50" height="50" relative="1" as="geometry">
            <mxPoint x="60" y="30" as="sourcePoint" />
            <mxPoint x="110" y="-20" as="targetPoint" />
          </mxGeometry>
        </mxCell>
        <mxCell id="ncH9lBuyGDEs40Vm6WBE-12" value="" style="endArrow=classic;html=1;rounded=0;fontColor=default;exitX=0;exitY=0.5;exitDx=0;exitDy=0;entryX=1;entryY=0.5;entryDx=0;entryDy=0;labelBackgroundColor=none;strokeColor=#EEEEEE;" parent="1" source="DhT4uTh2uoKUJcFQT_RJ-8" target="DhT4uTh2uoKUJcFQT_RJ-10" edge="1">
          <mxGeometry width="50" height="50" relative="1" as="geometry">
            <mxPoint x="60" y="30" as="sourcePoint" />
            <mxPoint x="110" y="-20" as="targetPoint" />
          </mxGeometry>
        </mxCell>
        <mxCell id="ncH9lBuyGDEs40Vm6WBE-15" value="" style="endArrow=classic;html=1;rounded=0;fontColor=default;exitX=0.5;exitY=0;exitDx=0;exitDy=0;labelBackgroundColor=none;strokeColor=#EEEEEE;" parent="1" source="DhT4uTh2uoKUJcFQT_RJ-10" target="DhT4uTh2uoKUJcFQT_RJ-7" edge="1">
          <mxGeometry width="50" height="50" relative="1" as="geometry">
            <mxPoint x="30" y="30" as="sourcePoint" />
            <mxPoint x="80" y="-20" as="targetPoint" />
          </mxGeometry>
        </mxCell>
        <mxCell id="ncH9lBuyGDEs40Vm6WBE-16" value="Falso" style="text;html=1;align=center;verticalAlign=middle;whiteSpace=wrap;rounded=0;labelBackgroundColor=none;fontColor=#182E3E;" parent="1" vertex="1">
          <mxGeometry x="650" y="-65" width="100" height="35" as="geometry" />
        </mxCell>
        <mxCell id="ncH9lBuyGDEs40Vm6WBE-18" value="" style="edgeStyle=segmentEdgeStyle;endArrow=classic;html=1;curved=0;rounded=0;endSize=8;startSize=8;fontColor=default;exitX=0.5;exitY=1;exitDx=0;exitDy=0;entryX=1;entryY=0.5;entryDx=0;entryDy=0;entryPerimeter=0;labelBackgroundColor=none;strokeColor=#EEEEEE;" parent="1" source="ncH9lBuyGDEs40Vm6WBE-16" target="DhT4uTh2uoKUJcFQT_RJ-11" edge="1">
          <mxGeometry width="50" height="50" relative="1" as="geometry">
            <mxPoint x="480" y="30" as="sourcePoint" />
            <mxPoint x="130" y="300" as="targetPoint" />
            <Array as="points">
              <mxPoint x="700" y="210" />
            </Array>
          </mxGeometry>
        </mxCell>
        <mxCell id="7Ze8JuWul-2o5zZ7rUCk-1" value="" style="endArrow=none;html=1;rounded=0;exitX=1;exitY=0;exitDx=0;exitDy=0;labelBackgroundColor=none;fontColor=default;strokeColor=#EEEEEE;" parent="1" edge="1">
          <mxGeometry width="50" height="50" relative="1" as="geometry">
            <mxPoint x="435" y="-46.49" as="sourcePoint" />
            <mxPoint x="650" y="-48.51830188679241" as="targetPoint" />
          </mxGeometry>
        </mxCell>
      </root>
    </mxGraphModel>
  </diagram>
  <diagram id="VIx3m37W_cX1NlkagzlZ" name="E1.1.  2 números al usuario">
    <mxGraphModel dx="1523" dy="1061" grid="0" gridSize="10" guides="1" tooltips="1" connect="1" arrows="1" fold="1" page="0" pageScale="1" pageWidth="827" pageHeight="1169" math="0" shadow="0">
      <root>
        <mxCell id="0" />
        <mxCell id="1" parent="0" />
        <mxCell id="E4RD-WtDi7xz_1aJBrQx-3" value="&lt;span class=&quot;notion-enable-hover&quot; data-token-index=&quot;0&quot; style=&quot;color:rgba(55, 53, 47, 1);isolation:auto&quot;&gt;“Escriba el primer número”&lt;/span&gt;" style="shape=display;whiteSpace=wrap;html=1;strokeColor=#788AA3;fontColor=#46495D;fillColor=#B2C9AB;labelBackgroundColor=none;" parent="1" vertex="1">
          <mxGeometry x="-10" y="-10" width="120" height="60" as="geometry" />
        </mxCell>
        <mxCell id="E4RD-WtDi7xz_1aJBrQx-4" value="primer_numero" style="shape=parallelogram;html=1;strokeWidth=2;perimeter=parallelogramPerimeter;whiteSpace=wrap;rounded=1;arcSize=12;size=0.23;strokeColor=#788AA3;fontColor=#46495D;fillColor=#B2C9AB;labelBackgroundColor=none;" parent="1" vertex="1">
          <mxGeometry x="-10" y="70" width="120" height="40" as="geometry" />
        </mxCell>
        <mxCell id="E4RD-WtDi7xz_1aJBrQx-5" value="&lt;span class=&quot;notion-enable-hover&quot; data-token-index=&quot;0&quot; style=&quot;color: rgb(55, 53, 47); isolation: auto;&quot;&gt;“Escriba el segundo número”&lt;/span&gt;" style="shape=display;whiteSpace=wrap;html=1;strokeColor=#788AA3;fontColor=#46495D;fillColor=#B2C9AB;labelBackgroundColor=none;" parent="1" vertex="1">
          <mxGeometry x="-30" y="130" width="140" height="70" as="geometry" />
        </mxCell>
        <mxCell id="E4RD-WtDi7xz_1aJBrQx-6" value="segundo_numero" style="shape=parallelogram;html=1;strokeWidth=2;perimeter=parallelogramPerimeter;whiteSpace=wrap;rounded=1;arcSize=12;size=0.23;strokeColor=#788AA3;fontColor=#46495D;fillColor=#B2C9AB;labelBackgroundColor=none;" parent="1" vertex="1">
          <mxGeometry x="-40" y="220" width="130" height="40" as="geometry" />
        </mxCell>
        <mxCell id="E4RD-WtDi7xz_1aJBrQx-7" value="primero &amp;lt; segundo" style="strokeWidth=2;html=1;shape=mxgraph.flowchart.decision;whiteSpace=wrap;strokeColor=#788AA3;fontColor=#46495D;fillColor=#B2C9AB;labelBackgroundColor=none;" parent="1" vertex="1">
          <mxGeometry x="230" y="190" width="180" height="120" as="geometry" />
        </mxCell>
        <mxCell id="E4RD-WtDi7xz_1aJBrQx-8" value="Verdadero" style="text;html=1;align=center;verticalAlign=middle;whiteSpace=wrap;rounded=0;fontColor=#46495D;labelBackgroundColor=none;" parent="1" vertex="1">
          <mxGeometry x="120" y="270" width="60" height="30" as="geometry" />
        </mxCell>
        <mxCell id="E4RD-WtDi7xz_1aJBrQx-9" value="Falso" style="text;html=1;align=center;verticalAlign=middle;whiteSpace=wrap;rounded=0;fontColor=#46495D;labelBackgroundColor=none;" parent="1" vertex="1">
          <mxGeometry x="470" y="270" width="60" height="30" as="geometry" />
        </mxCell>
        <mxCell id="E4RD-WtDi7xz_1aJBrQx-10" value="“El orden de menor a mayor es” primero y segundo" style="shape=display;whiteSpace=wrap;html=1;strokeColor=#788AA3;fontColor=#46495D;fillColor=#B2C9AB;labelBackgroundColor=none;" parent="1" vertex="1">
          <mxGeometry x="-100" y="320" width="205" height="90" as="geometry" />
        </mxCell>
        <mxCell id="E4RD-WtDi7xz_1aJBrQx-11" value="“El orden de menor a mayor es” segundo y primero" style="shape=display;whiteSpace=wrap;html=1;strokeColor=#788AA3;fontColor=#46495D;fillColor=#B2C9AB;labelBackgroundColor=none;" parent="1" vertex="1">
          <mxGeometry x="500" y="310" width="205" height="90" as="geometry" />
        </mxCell>
        <mxCell id="E4RD-WtDi7xz_1aJBrQx-12" value="" style="endArrow=classic;html=1;rounded=0;strokeColor=#788AA3;fontColor=default;fillColor=#B2C9AB;exitX=0;exitY=0.5;exitDx=0;exitDy=0;entryX=0;entryY=0;entryDx=90;entryDy=0;entryPerimeter=0;labelBackgroundColor=none;" parent="1" target="E4RD-WtDi7xz_1aJBrQx-3" edge="1">
          <mxGeometry width="50" height="50" relative="1" as="geometry">
            <mxPoint x="160" y="-25" as="sourcePoint" />
            <mxPoint x="230" y="240" as="targetPoint" />
          </mxGeometry>
        </mxCell>
        <mxCell id="E4RD-WtDi7xz_1aJBrQx-13" value="" style="endArrow=classic;html=1;rounded=0;strokeColor=#788AA3;fontColor=default;fillColor=#B2C9AB;exitX=0;exitY=0;exitDx=60;exitDy=60;exitPerimeter=0;entryX=0.5;entryY=0;entryDx=0;entryDy=0;labelBackgroundColor=none;" parent="1" source="E4RD-WtDi7xz_1aJBrQx-3" target="E4RD-WtDi7xz_1aJBrQx-4" edge="1">
          <mxGeometry width="50" height="50" relative="1" as="geometry">
            <mxPoint x="180" y="170" as="sourcePoint" />
            <mxPoint x="230" y="120" as="targetPoint" />
          </mxGeometry>
        </mxCell>
        <mxCell id="E4RD-WtDi7xz_1aJBrQx-14" value="" style="endArrow=classic;html=1;rounded=0;strokeColor=#788AA3;fontColor=default;fillColor=#B2C9AB;exitX=0.5;exitY=1;exitDx=0;exitDy=0;entryX=0;entryY=0;entryDx=70;entryDy=0;entryPerimeter=0;labelBackgroundColor=none;" parent="1" source="E4RD-WtDi7xz_1aJBrQx-4" target="E4RD-WtDi7xz_1aJBrQx-5" edge="1">
          <mxGeometry width="50" height="50" relative="1" as="geometry">
            <mxPoint x="180" y="170" as="sourcePoint" />
            <mxPoint x="230" y="120" as="targetPoint" />
          </mxGeometry>
        </mxCell>
        <mxCell id="E4RD-WtDi7xz_1aJBrQx-15" value="" style="endArrow=classic;html=1;rounded=0;strokeColor=#788AA3;fontColor=default;fillColor=#B2C9AB;exitX=0;exitY=0;exitDx=70;exitDy=70;exitPerimeter=0;entryX=0.5;entryY=0;entryDx=0;entryDy=0;labelBackgroundColor=none;" parent="1" source="E4RD-WtDi7xz_1aJBrQx-5" target="E4RD-WtDi7xz_1aJBrQx-6" edge="1">
          <mxGeometry width="50" height="50" relative="1" as="geometry">
            <mxPoint x="180" y="170" as="sourcePoint" />
            <mxPoint x="230" y="120" as="targetPoint" />
          </mxGeometry>
        </mxCell>
        <mxCell id="E4RD-WtDi7xz_1aJBrQx-17" value="" style="endArrow=classic;html=1;rounded=0;strokeColor=#788AA3;fontColor=default;fillColor=#B2C9AB;exitX=1;exitY=0.5;exitDx=0;exitDy=0;entryX=0;entryY=0.5;entryDx=0;entryDy=0;entryPerimeter=0;labelBackgroundColor=none;" parent="1" source="E4RD-WtDi7xz_1aJBrQx-6" target="E4RD-WtDi7xz_1aJBrQx-7" edge="1">
          <mxGeometry width="50" height="50" relative="1" as="geometry">
            <mxPoint x="180" y="170" as="sourcePoint" />
            <mxPoint x="230" y="120" as="targetPoint" />
          </mxGeometry>
        </mxCell>
        <mxCell id="E4RD-WtDi7xz_1aJBrQx-18" value="" style="endArrow=none;html=1;rounded=0;strokeColor=#788AA3;fontColor=default;fillColor=#B2C9AB;exitX=0.113;exitY=0.623;exitDx=0;exitDy=0;exitPerimeter=0;entryX=1;entryY=0.25;entryDx=0;entryDy=0;labelBackgroundColor=none;" parent="1" source="E4RD-WtDi7xz_1aJBrQx-7" target="E4RD-WtDi7xz_1aJBrQx-8" edge="1">
          <mxGeometry width="50" height="50" relative="1" as="geometry">
            <mxPoint x="180" y="170" as="sourcePoint" />
            <mxPoint x="230" y="120" as="targetPoint" />
          </mxGeometry>
        </mxCell>
        <mxCell id="E4RD-WtDi7xz_1aJBrQx-20" value="" style="endArrow=none;html=1;rounded=0;strokeColor=#788AA3;fontColor=default;fillColor=#B2C9AB;exitX=0.844;exitY=0.644;exitDx=0;exitDy=0;exitPerimeter=0;entryX=0;entryY=0.5;entryDx=0;entryDy=0;labelBackgroundColor=none;" parent="1" source="E4RD-WtDi7xz_1aJBrQx-7" target="E4RD-WtDi7xz_1aJBrQx-9" edge="1">
          <mxGeometry width="50" height="50" relative="1" as="geometry">
            <mxPoint x="180" y="170" as="sourcePoint" />
            <mxPoint x="230" y="120" as="targetPoint" />
          </mxGeometry>
        </mxCell>
        <mxCell id="E4RD-WtDi7xz_1aJBrQx-21" value="" style="endArrow=classic;html=1;rounded=0;strokeColor=#788AA3;fontColor=default;fillColor=#B2C9AB;exitX=0;exitY=0.5;exitDx=0;exitDy=0;entryX=0;entryY=0;entryDx=160;entryDy=0;entryPerimeter=0;labelBackgroundColor=none;" parent="1" source="E4RD-WtDi7xz_1aJBrQx-8" target="E4RD-WtDi7xz_1aJBrQx-10" edge="1">
          <mxGeometry width="50" height="50" relative="1" as="geometry">
            <mxPoint x="180" y="170" as="sourcePoint" />
            <mxPoint x="70" y="300" as="targetPoint" />
          </mxGeometry>
        </mxCell>
        <mxCell id="E4RD-WtDi7xz_1aJBrQx-22" value="" style="endArrow=classic;html=1;rounded=0;strokeColor=#788AA3;fontColor=default;fillColor=#B2C9AB;exitX=1;exitY=0.5;exitDx=0;exitDy=0;entryX=0;entryY=0;entryDx=105.625;entryDy=0;entryPerimeter=0;labelBackgroundColor=none;" parent="1" source="E4RD-WtDi7xz_1aJBrQx-9" target="E4RD-WtDi7xz_1aJBrQx-11" edge="1">
          <mxGeometry width="50" height="50" relative="1" as="geometry">
            <mxPoint x="180" y="170" as="sourcePoint" />
            <mxPoint x="230" y="120" as="targetPoint" />
          </mxGeometry>
        </mxCell>
        <mxCell id="E4RD-WtDi7xz_1aJBrQx-23" value="" style="endArrow=classic;html=1;rounded=0;strokeColor=#788AA3;fontColor=default;fillColor=#B2C9AB;exitX=1;exitY=0.5;exitDx=0;exitDy=0;exitPerimeter=0;entryX=0;entryY=0.5;entryDx=0;entryDy=0;labelBackgroundColor=none;" parent="1" source="E4RD-WtDi7xz_1aJBrQx-10" edge="1">
          <mxGeometry width="50" height="50" relative="1" as="geometry">
            <mxPoint x="180" y="290" as="sourcePoint" />
            <mxPoint x="280" y="435" as="targetPoint" />
          </mxGeometry>
        </mxCell>
        <mxCell id="E4RD-WtDi7xz_1aJBrQx-24" value="" style="endArrow=classic;html=1;rounded=0;strokeColor=#788AA3;fontColor=default;fillColor=#B2C9AB;exitX=0.132;exitY=0.738;exitDx=0;exitDy=0;exitPerimeter=0;entryX=1;entryY=0.5;entryDx=0;entryDy=0;labelBackgroundColor=none;" parent="1" source="E4RD-WtDi7xz_1aJBrQx-11" edge="1">
          <mxGeometry width="50" height="50" relative="1" as="geometry">
            <mxPoint x="180" y="290" as="sourcePoint" />
            <mxPoint x="360" y="435" as="targetPoint" />
          </mxGeometry>
        </mxCell>
        <mxCell id="7QyUy9zGwkueXvFOoR4p-1" value="Inicio" style="rounded=1;whiteSpace=wrap;html=1;strokeColor=#788AA3;fontColor=#46495D;fillColor=#B2C9AB;arcSize=50;labelBackgroundColor=none;" parent="1" vertex="1">
          <mxGeometry x="160" y="-40" width="70" height="30" as="geometry" />
        </mxCell>
        <mxCell id="7nNkrAVjuZARoz_XB1lJ-1" value="Fin" style="rounded=1;whiteSpace=wrap;html=1;strokeColor=#788AA3;fontColor=#46495D;fillColor=#B2C9AB;arcSize=50;labelBackgroundColor=none;" parent="1" vertex="1">
          <mxGeometry x="285" y="420" width="70" height="30" as="geometry" />
        </mxCell>
      </root>
    </mxGraphModel>
  </diagram>
  <diagram id="B4DgM65D-2z_JR8Ooqca" name="E1.2. Velocidad en km/h a m/s">
    <mxGraphModel dx="1123" dy="1061" grid="0" gridSize="10" guides="1" tooltips="1" connect="1" arrows="1" fold="1" page="0" pageScale="1" pageWidth="827" pageHeight="1169" math="0" shadow="0">
      <root>
        <mxCell id="0" />
        <mxCell id="1" parent="0" />
        <mxCell id="R80XuapqXvQmURlfT3L5-1" value="Inicio" style="rounded=1;whiteSpace=wrap;html=1;strokeColor=#788AA3;fontColor=#46495D;fillColor=#B2C9AB;arcSize=50;labelBackgroundColor=none;" parent="1" vertex="1">
          <mxGeometry x="100" y="-200" width="70" height="30" as="geometry" />
        </mxCell>
        <mxCell id="R80XuapqXvQmURlfT3L5-3" value="Fin" style="rounded=1;whiteSpace=wrap;html=1;strokeColor=#788AA3;fontColor=#46495D;fillColor=#B2C9AB;arcSize=50;labelBackgroundColor=none;" parent="1" vertex="1">
          <mxGeometry x="220" y="330" width="70" height="30" as="geometry" />
        </mxCell>
        <mxCell id="R80XuapqXvQmURlfT3L5-4" value="&lt;span class=&quot;notion-enable-hover&quot; data-token-index=&quot;0&quot; style=&quot;color:rgba(55, 53, 47, 1);isolation:auto&quot;&gt;Mostrar “Indique la velocidad en km/h”&lt;/span&gt;" style="shape=display;whiteSpace=wrap;html=1;strokeColor=#788AA3;fontColor=#46495D;fillColor=#B2C9AB;labelBackgroundColor=none;" parent="1" vertex="1">
          <mxGeometry x="50" y="-120" width="130" height="90" as="geometry" />
        </mxCell>
        <mxCell id="R80XuapqXvQmURlfT3L5-5" value="&lt;span class=&quot;notion-enable-hover&quot; data-token-index=&quot;0&quot; style=&quot;color:rgba(55, 53, 47, 1);isolation:auto&quot;&gt;km_hora&lt;/span&gt;" style="shape=parallelogram;perimeter=parallelogramPerimeter;whiteSpace=wrap;html=1;fixedSize=1;strokeColor=#788AA3;fontColor=#46495D;fillColor=#B2C9AB;labelBackgroundColor=none;" parent="1" vertex="1">
          <mxGeometry x="70" y="10" width="120" height="70" as="geometry" />
        </mxCell>
        <mxCell id="R80XuapqXvQmURlfT3L5-6" value="&lt;span class=&quot;notion-enable-hover&quot; data-token-index=&quot;0&quot; style=&quot;color:rgba(55, 53, 47, 1);isolation:auto&quot;&gt;m_segundo = km_hora / 3.6&lt;/span&gt;" style="rounded=0;whiteSpace=wrap;html=1;strokeColor=#788AA3;fontColor=#46495D;fillColor=#B2C9AB;labelBackgroundColor=none;" parent="1" vertex="1">
          <mxGeometry x="70" y="120" width="120" height="60" as="geometry" />
        </mxCell>
        <mxCell id="R80XuapqXvQmURlfT3L5-7" value="&lt;span class=&quot;notion-enable-hover&quot; data-token-index=&quot;0&quot; style=&quot;color: rgb(55, 53, 47); isolation: auto;&quot;&gt;“La velocidad en m/s es de”&amp;nbsp;&lt;/span&gt;m_segundo" style="shape=display;whiteSpace=wrap;html=1;strokeColor=#788AA3;fontColor=#46495D;fillColor=#B2C9AB;labelBackgroundColor=none;" parent="1" vertex="1">
          <mxGeometry x="70" y="220" width="110" height="80" as="geometry" />
        </mxCell>
        <mxCell id="R80XuapqXvQmURlfT3L5-8" value="" style="endArrow=classic;html=1;rounded=0;strokeColor=#788AA3;fontColor=default;fillColor=#B2C9AB;exitX=0.5;exitY=1;exitDx=0;exitDy=0;entryX=0;entryY=0;entryDx=85;entryDy=0;entryPerimeter=0;labelBackgroundColor=none;" parent="1" source="R80XuapqXvQmURlfT3L5-1" target="R80XuapqXvQmURlfT3L5-4" edge="1">
          <mxGeometry width="50" height="50" relative="1" as="geometry">
            <mxPoint x="150" y="110" as="sourcePoint" />
            <mxPoint x="200" y="60" as="targetPoint" />
          </mxGeometry>
        </mxCell>
        <mxCell id="R80XuapqXvQmURlfT3L5-9" value="" style="endArrow=classic;html=1;rounded=0;strokeColor=#788AA3;fontColor=default;fillColor=#B2C9AB;exitX=0;exitY=0;exitDx=85;exitDy=90;exitPerimeter=0;labelBackgroundColor=none;" parent="1" source="R80XuapqXvQmURlfT3L5-4" edge="1">
          <mxGeometry width="50" height="50" relative="1" as="geometry">
            <mxPoint x="150" y="110" as="sourcePoint" />
            <mxPoint x="135" y="10" as="targetPoint" />
          </mxGeometry>
        </mxCell>
        <mxCell id="R80XuapqXvQmURlfT3L5-10" value="" style="endArrow=classic;html=1;rounded=0;strokeColor=#788AA3;fontColor=default;fillColor=#B2C9AB;exitX=0.5;exitY=1;exitDx=0;exitDy=0;entryX=0.5;entryY=0;entryDx=0;entryDy=0;labelBackgroundColor=none;" parent="1" source="R80XuapqXvQmURlfT3L5-5" target="R80XuapqXvQmURlfT3L5-6" edge="1">
          <mxGeometry width="50" height="50" relative="1" as="geometry">
            <mxPoint x="150" y="110" as="sourcePoint" />
            <mxPoint x="200" y="60" as="targetPoint" />
          </mxGeometry>
        </mxCell>
        <mxCell id="R80XuapqXvQmURlfT3L5-11" value="" style="endArrow=classic;html=1;rounded=0;strokeColor=#788AA3;fontColor=default;fillColor=#B2C9AB;exitX=0.5;exitY=1;exitDx=0;exitDy=0;entryX=0.552;entryY=0.011;entryDx=0;entryDy=0;entryPerimeter=0;labelBackgroundColor=none;" parent="1" source="R80XuapqXvQmURlfT3L5-6" target="R80XuapqXvQmURlfT3L5-7" edge="1">
          <mxGeometry width="50" height="50" relative="1" as="geometry">
            <mxPoint x="150" y="110" as="sourcePoint" />
            <mxPoint x="200" y="60" as="targetPoint" />
          </mxGeometry>
        </mxCell>
        <mxCell id="R80XuapqXvQmURlfT3L5-12" value="" style="endArrow=classic;html=1;rounded=0;strokeColor=#788AA3;fontColor=default;fillColor=#B2C9AB;exitX=0;exitY=0;exitDx=70;exitDy=80;exitPerimeter=0;entryX=0;entryY=0.5;entryDx=0;entryDy=0;labelBackgroundColor=none;" parent="1" source="R80XuapqXvQmURlfT3L5-7" target="R80XuapqXvQmURlfT3L5-3" edge="1">
          <mxGeometry width="50" height="50" relative="1" as="geometry">
            <mxPoint x="150" y="230" as="sourcePoint" />
            <mxPoint x="200" y="180" as="targetPoint" />
          </mxGeometry>
        </mxCell>
      </root>
    </mxGraphModel>
  </diagram>
  <diagram id="N5Y7r_wOn8GVZlHSzYKk" name="E1.3. Sexo de 6 personas, ingresando 1 si es mujer o 2 si es hombre">
    <mxGraphModel dx="1523" dy="1061" grid="0" gridSize="10" guides="1" tooltips="1" connect="1" arrows="1" fold="1" page="0" pageScale="1" pageWidth="827" pageHeight="1169" math="0" shadow="0">
      <root>
        <mxCell id="0" />
        <mxCell id="1" parent="0" />
        <mxCell id="lTJQXbJdY5565hRLX1Yf-1" style="edgeStyle=orthogonalEdgeStyle;rounded=0;orthogonalLoop=1;jettySize=auto;html=1;exitX=1;exitY=0.5;exitDx=0;exitDy=0;strokeColor=#788AA3;fontColor=default;fillColor=#B2C9AB;labelBackgroundColor=none;" parent="1" source="m1zZEJeJIfynzg76HDp--1" target="t6ciwc_pcL6VDEvjpru7-2" edge="1">
          <mxGeometry relative="1" as="geometry" />
        </mxCell>
        <mxCell id="m1zZEJeJIfynzg76HDp--1" value="Inicio" style="rounded=1;whiteSpace=wrap;html=1;strokeColor=#788AA3;fontColor=#46495D;fillColor=#B2C9AB;arcSize=50;labelBackgroundColor=none;" parent="1" vertex="1">
          <mxGeometry x="-280" y="-320" width="70" height="30" as="geometry" />
        </mxCell>
        <mxCell id="Eul7EDffjnB0_0qOfTXd-1" value="Fin" style="rounded=1;whiteSpace=wrap;html=1;strokeColor=#788AA3;fontColor=#46495D;fillColor=#B2C9AB;arcSize=50;labelBackgroundColor=none;" parent="1" vertex="1">
          <mxGeometry x="190" y="170" width="70" height="30" as="geometry" />
        </mxCell>
        <mxCell id="lTJQXbJdY5565hRLX1Yf-3" style="edgeStyle=orthogonalEdgeStyle;rounded=0;orthogonalLoop=1;jettySize=auto;html=1;exitX=1;exitY=0.5;exitDx=0;exitDy=0;entryX=0;entryY=0.5;entryDx=0;entryDy=0;strokeColor=#788AA3;fontColor=default;fillColor=#B2C9AB;labelBackgroundColor=none;" parent="1" source="t6ciwc_pcL6VDEvjpru7-1" target="t6ciwc_pcL6VDEvjpru7-3" edge="1">
          <mxGeometry relative="1" as="geometry" />
        </mxCell>
        <mxCell id="t6ciwc_pcL6VDEvjpru7-1" value="hombres = 0" style="rounded=0;whiteSpace=wrap;html=1;strokeColor=#788AA3;fontColor=#46495D;fillColor=#B2C9AB;labelBackgroundColor=none;" parent="1" vertex="1">
          <mxGeometry x="-50" y="-315" width="100" height="20" as="geometry" />
        </mxCell>
        <mxCell id="lTJQXbJdY5565hRLX1Yf-2" style="edgeStyle=orthogonalEdgeStyle;rounded=0;orthogonalLoop=1;jettySize=auto;html=1;exitX=1;exitY=0.5;exitDx=0;exitDy=0;entryX=0;entryY=0.5;entryDx=0;entryDy=0;strokeColor=#788AA3;fontColor=default;fillColor=#B2C9AB;labelBackgroundColor=none;" parent="1" source="t6ciwc_pcL6VDEvjpru7-2" target="t6ciwc_pcL6VDEvjpru7-1" edge="1">
          <mxGeometry relative="1" as="geometry" />
        </mxCell>
        <mxCell id="t6ciwc_pcL6VDEvjpru7-2" value="mujeres = 0" style="rounded=0;whiteSpace=wrap;html=1;strokeColor=#788AA3;fontColor=#46495D;fillColor=#B2C9AB;labelBackgroundColor=none;" parent="1" vertex="1">
          <mxGeometry x="-170" y="-315" width="80" height="20" as="geometry" />
        </mxCell>
        <mxCell id="lTJQXbJdY5565hRLX1Yf-4" style="edgeStyle=orthogonalEdgeStyle;rounded=0;orthogonalLoop=1;jettySize=auto;html=1;exitX=0.5;exitY=1;exitDx=0;exitDy=0;entryX=0.5;entryY=0;entryDx=0;entryDy=0;strokeColor=#788AA3;fontColor=default;fillColor=#B2C9AB;labelBackgroundColor=none;" parent="1" source="t6ciwc_pcL6VDEvjpru7-3" target="S_lzEyKgsAEVn-ZIzgIa-2" edge="1">
          <mxGeometry relative="1" as="geometry" />
        </mxCell>
        <mxCell id="t6ciwc_pcL6VDEvjpru7-3" value="contador = 1" style="rounded=0;whiteSpace=wrap;html=1;strokeColor=#788AA3;fontColor=#46495D;fillColor=#B2C9AB;labelBackgroundColor=none;" parent="1" vertex="1">
          <mxGeometry x="90" y="-315" width="90" height="20" as="geometry" />
        </mxCell>
        <mxCell id="lTJQXbJdY5565hRLX1Yf-29" style="edgeStyle=orthogonalEdgeStyle;rounded=0;orthogonalLoop=1;jettySize=auto;html=1;exitX=0.5;exitY=1;exitDx=0;exitDy=0;entryX=0.5;entryY=0;entryDx=0;entryDy=0;strokeColor=#788AA3;fontColor=default;fillColor=#B2C9AB;labelBackgroundColor=none;" parent="1" source="t6ciwc_pcL6VDEvjpru7-4" target="t6ciwc_pcL6VDEvjpru7-5" edge="1">
          <mxGeometry relative="1" as="geometry" />
        </mxCell>
        <mxCell id="t6ciwc_pcL6VDEvjpru7-4" value="porcentaje_mujeres = (mujeres / 6) * 100" style="rounded=0;whiteSpace=wrap;html=1;strokeColor=#788AA3;fontColor=#46495D;fillColor=#B2C9AB;labelBackgroundColor=none;" parent="1" vertex="1">
          <mxGeometry x="430" y="-240" width="230" height="20" as="geometry" />
        </mxCell>
        <mxCell id="t6ciwc_pcL6VDEvjpru7-5" value="porcentaje_hombres = (hombres / 6) * 100" style="rounded=0;whiteSpace=wrap;html=1;strokeColor=#788AA3;fontColor=#46495D;fillColor=#B2C9AB;labelBackgroundColor=none;" parent="1" vertex="1">
          <mxGeometry x="430" y="-185" width="230" height="20" as="geometry" />
        </mxCell>
        <mxCell id="lTJQXbJdY5565hRLX1Yf-31" style="edgeStyle=orthogonalEdgeStyle;rounded=0;orthogonalLoop=1;jettySize=auto;html=1;exitX=0;exitY=0.5;exitDx=0;exitDy=0;exitPerimeter=0;strokeColor=#788AA3;fontColor=default;fillColor=#B2C9AB;labelBackgroundColor=none;" parent="1" source="t6ciwc_pcL6VDEvjpru7-6" target="Eul7EDffjnB0_0qOfTXd-1" edge="1">
          <mxGeometry relative="1" as="geometry" />
        </mxCell>
        <mxCell id="t6ciwc_pcL6VDEvjpru7-6" value="&quot;El porcentaje de mujeres y hombres es de&quot; porcentaje_mujeres y porcentaje_hombres" style="shape=display;whiteSpace=wrap;html=1;strokeColor=#788AA3;fontColor=#46495D;fillColor=#B2C9AB;labelBackgroundColor=none;" parent="1" vertex="1">
          <mxGeometry x="390" y="80" width="280" height="80" as="geometry" />
        </mxCell>
        <mxCell id="lTJQXbJdY5565hRLX1Yf-12" style="edgeStyle=orthogonalEdgeStyle;rounded=0;orthogonalLoop=1;jettySize=auto;html=1;exitX=0.5;exitY=1;exitDx=0;exitDy=0;entryX=0.5;entryY=0;entryDx=0;entryDy=0;strokeColor=#788AA3;fontColor=default;fillColor=#B2C9AB;labelBackgroundColor=none;" parent="1" source="lif4oF3N8f8zNzeOnMEu-1" target="S_lzEyKgsAEVn-ZIzgIa-6" edge="1">
          <mxGeometry relative="1" as="geometry" />
        </mxCell>
        <mxCell id="lif4oF3N8f8zNzeOnMEu-1" value="genero" style="shape=parallelogram;perimeter=parallelogramPerimeter;whiteSpace=wrap;html=1;fixedSize=1;labelBackgroundColor=none;fillColor=#B2C9AB;strokeColor=#788AA3;fontColor=#46495D;" parent="1" vertex="1">
          <mxGeometry x="-130" y="-100" width="90" height="30" as="geometry" />
        </mxCell>
        <mxCell id="lTJQXbJdY5565hRLX1Yf-11" style="edgeStyle=orthogonalEdgeStyle;rounded=0;orthogonalLoop=1;jettySize=auto;html=1;exitX=0;exitY=0;exitDx=172.5;exitDy=60;exitPerimeter=0;entryX=0.5;entryY=0;entryDx=0;entryDy=0;strokeColor=#788AA3;fontColor=default;fillColor=#B2C9AB;labelBackgroundColor=none;" parent="1" source="S_lzEyKgsAEVn-ZIzgIa-1" target="lif4oF3N8f8zNzeOnMEu-1" edge="1">
          <mxGeometry relative="1" as="geometry" />
        </mxCell>
        <mxCell id="S_lzEyKgsAEVn-ZIzgIa-1" value="&quot;Presione el número 1 si es mujer y 2 si es hombre&quot;" style="shape=display;whiteSpace=wrap;html=1;strokeColor=#788AA3;fontColor=#46495D;fillColor=#B2C9AB;labelBackgroundColor=none;" parent="1" vertex="1">
          <mxGeometry x="-254" y="-181" width="304" height="61" as="geometry" />
        </mxCell>
        <mxCell id="S_lzEyKgsAEVn-ZIzgIa-2" value="&#xa;(contador &amp;lt;= 6)&#xa;&#xa;" style="rhombus;whiteSpace=wrap;html=1;strokeColor=#788AA3;fontColor=#46495D;fillColor=#B2C9AB;labelBackgroundColor=none;" parent="1" vertex="1">
          <mxGeometry x="65" y="-260" width="140" height="60" as="geometry" />
        </mxCell>
        <mxCell id="lTJQXbJdY5565hRLX1Yf-27" style="edgeStyle=orthogonalEdgeStyle;rounded=0;orthogonalLoop=1;jettySize=auto;html=1;exitX=0;exitY=0.5;exitDx=0;exitDy=0;entryX=0.5;entryY=1;entryDx=0;entryDy=0;strokeColor=#788AA3;fontColor=default;fillColor=#B2C9AB;labelBackgroundColor=none;" parent="1" source="S_lzEyKgsAEVn-ZIzgIa-3" target="S_lzEyKgsAEVn-ZIzgIa-2" edge="1">
          <mxGeometry relative="1" as="geometry" />
        </mxCell>
        <mxCell id="S_lzEyKgsAEVn-ZIzgIa-3" value="contador = contador + 1" style="rounded=0;whiteSpace=wrap;html=1;strokeColor=#788AA3;fontColor=#46495D;fillColor=#B2C9AB;labelBackgroundColor=none;" parent="1" vertex="1">
          <mxGeometry x="260" y="-165" width="130" height="30" as="geometry" />
        </mxCell>
        <mxCell id="lTJQXbJdY5565hRLX1Yf-24" style="edgeStyle=orthogonalEdgeStyle;rounded=0;orthogonalLoop=1;jettySize=auto;html=1;exitX=0.75;exitY=0;exitDx=0;exitDy=0;strokeColor=#788AA3;fontColor=default;fillColor=#B2C9AB;labelBackgroundColor=none;" parent="1" source="S_lzEyKgsAEVn-ZIzgIa-4" target="S_lzEyKgsAEVn-ZIzgIa-3" edge="1">
          <mxGeometry relative="1" as="geometry" />
        </mxCell>
        <mxCell id="S_lzEyKgsAEVn-ZIzgIa-4" value="mujeres = mujeres + 1" style="rounded=0;whiteSpace=wrap;html=1;strokeColor=#788AA3;fontColor=#46495D;fillColor=#B2C9AB;labelBackgroundColor=none;" parent="1" vertex="1">
          <mxGeometry x="60" y="-55" width="160" height="20" as="geometry" />
        </mxCell>
        <mxCell id="lTJQXbJdY5565hRLX1Yf-25" style="edgeStyle=orthogonalEdgeStyle;rounded=0;orthogonalLoop=1;jettySize=auto;html=1;exitX=0.5;exitY=0;exitDx=0;exitDy=0;strokeColor=#788AA3;fontColor=default;fillColor=#B2C9AB;labelBackgroundColor=none;" parent="1" edge="1">
          <mxGeometry relative="1" as="geometry">
            <mxPoint x="380" y="-130" as="targetPoint" />
            <mxPoint x="140" y="50" as="sourcePoint" />
          </mxGeometry>
        </mxCell>
        <mxCell id="S_lzEyKgsAEVn-ZIzgIa-5" value="hombres = hombres + 1" style="rounded=0;whiteSpace=wrap;html=1;strokeColor=#788AA3;fontColor=#46495D;fillColor=#B2C9AB;labelBackgroundColor=none;" parent="1" vertex="1">
          <mxGeometry x="55" y="50" width="150" height="20" as="geometry" />
        </mxCell>
        <mxCell id="S_lzEyKgsAEVn-ZIzgIa-6" value="genero = 1" style="rhombus;whiteSpace=wrap;html=1;strokeColor=#788AA3;fontColor=#46495D;fillColor=#B2C9AB;labelBackgroundColor=none;" parent="1" vertex="1">
          <mxGeometry x="-135" y="-40" width="100" height="70" as="geometry" />
        </mxCell>
        <mxCell id="lTJQXbJdY5565hRLX1Yf-5" value="Verdadero" style="text;html=1;align=center;verticalAlign=middle;resizable=0;points=[];autosize=1;strokeColor=none;fillColor=none;fontColor=#46495D;labelBackgroundColor=none;" parent="1" vertex="1">
          <mxGeometry x="-90" y="-245" width="80" height="30" as="geometry" />
        </mxCell>
        <mxCell id="lTJQXbJdY5565hRLX1Yf-9" value="" style="endArrow=classic;html=1;rounded=0;strokeColor=#788AA3;fontColor=default;fillColor=#B2C9AB;exitX=0.425;exitY=1.046;exitDx=0;exitDy=0;exitPerimeter=0;labelBackgroundColor=none;" parent="1" source="lTJQXbJdY5565hRLX1Yf-5" edge="1">
          <mxGeometry width="50" height="50" relative="1" as="geometry">
            <mxPoint x="170" y="-30" as="sourcePoint" />
            <mxPoint x="-69" y="-180" as="targetPoint" />
          </mxGeometry>
        </mxCell>
        <mxCell id="lTJQXbJdY5565hRLX1Yf-13" value="Verdadero" style="text;html=1;align=center;verticalAlign=middle;resizable=0;points=[];autosize=1;strokeColor=none;fillColor=none;fontColor=#46495D;labelBackgroundColor=none;" parent="1" vertex="1">
          <mxGeometry x="-40" y="-60" width="80" height="30" as="geometry" />
        </mxCell>
        <mxCell id="lTJQXbJdY5565hRLX1Yf-14" value="Falso" style="text;html=1;align=center;verticalAlign=middle;resizable=0;points=[];autosize=1;strokeColor=none;fillColor=none;fontColor=#46495D;labelBackgroundColor=none;" parent="1" vertex="1">
          <mxGeometry x="-35" y="40" width="50" height="30" as="geometry" />
        </mxCell>
        <mxCell id="lTJQXbJdY5565hRLX1Yf-22" value="" style="endArrow=classic;html=1;rounded=0;strokeColor=#788AA3;fontColor=default;fillColor=#B2C9AB;exitX=0.961;exitY=0.565;exitDx=0;exitDy=0;exitPerimeter=0;entryX=0;entryY=0.5;entryDx=0;entryDy=0;labelBackgroundColor=none;" parent="1" source="lTJQXbJdY5565hRLX1Yf-14" target="S_lzEyKgsAEVn-ZIzgIa-5" edge="1">
          <mxGeometry width="50" height="50" relative="1" as="geometry">
            <mxPoint x="170" y="-30" as="sourcePoint" />
            <mxPoint x="220" y="-80" as="targetPoint" />
          </mxGeometry>
        </mxCell>
        <mxCell id="lTJQXbJdY5565hRLX1Yf-23" value="" style="endArrow=classic;html=1;rounded=0;strokeColor=#788AA3;fontColor=default;fillColor=#B2C9AB;exitX=0.957;exitY=0.5;exitDx=0;exitDy=0;exitPerimeter=0;labelBackgroundColor=none;" parent="1" source="lTJQXbJdY5565hRLX1Yf-13" edge="1">
          <mxGeometry width="50" height="50" relative="1" as="geometry">
            <mxPoint x="170" y="-30" as="sourcePoint" />
            <mxPoint x="60" y="-45" as="targetPoint" />
          </mxGeometry>
        </mxCell>
        <mxCell id="lTJQXbJdY5565hRLX1Yf-30" style="edgeStyle=orthogonalEdgeStyle;rounded=0;orthogonalLoop=1;jettySize=auto;html=1;exitX=0.5;exitY=1;exitDx=0;exitDy=0;entryX=0;entryY=0;entryDx=155;entryDy=0;entryPerimeter=0;strokeColor=#788AA3;fontColor=default;fillColor=#B2C9AB;labelBackgroundColor=none;" parent="1" source="t6ciwc_pcL6VDEvjpru7-5" target="t6ciwc_pcL6VDEvjpru7-6" edge="1">
          <mxGeometry relative="1" as="geometry" />
        </mxCell>
        <mxCell id="lTJQXbJdY5565hRLX1Yf-32" value="Falso" style="text;html=1;align=center;verticalAlign=middle;resizable=0;points=[];autosize=1;strokeColor=none;fillColor=none;fontColor=#46495D;labelBackgroundColor=none;" parent="1" vertex="1">
          <mxGeometry x="275" y="-245" width="50" height="30" as="geometry" />
        </mxCell>
        <mxCell id="lTJQXbJdY5565hRLX1Yf-36" value="" style="endArrow=classic;html=1;rounded=0;strokeColor=#788AA3;fontColor=default;fillColor=#B2C9AB;exitX=0.988;exitY=0.627;exitDx=0;exitDy=0;exitPerimeter=0;entryX=0;entryY=0.75;entryDx=0;entryDy=0;labelBackgroundColor=none;" parent="1" edge="1">
          <mxGeometry width="50" height="50" relative="1" as="geometry">
            <mxPoint x="325.0000000000001" y="-230.58999999999995" as="sourcePoint" />
            <mxPoint x="430.6" y="-229.4" as="targetPoint" />
          </mxGeometry>
        </mxCell>
        <mxCell id="82Mbd64pfrccDyr7gUXQ-1" value="" style="endArrow=none;html=1;rounded=0;strokeColor=#788AA3;fontColor=default;fillColor=#B2C9AB;exitX=1;exitY=0.5;exitDx=0;exitDy=0;entryX=-0.017;entryY=0.498;entryDx=0;entryDy=0;entryPerimeter=0;labelBackgroundColor=none;" parent="1" source="S_lzEyKgsAEVn-ZIzgIa-2" target="lTJQXbJdY5565hRLX1Yf-32" edge="1">
          <mxGeometry width="50" height="50" relative="1" as="geometry">
            <mxPoint x="143" y="-75" as="sourcePoint" />
            <mxPoint x="193" y="-125" as="targetPoint" />
          </mxGeometry>
        </mxCell>
        <mxCell id="82Mbd64pfrccDyr7gUXQ-2" value="" style="endArrow=none;html=1;rounded=0;strokeColor=#788AA3;fontColor=default;fillColor=#B2C9AB;exitX=1;exitY=0.5;exitDx=0;exitDy=0;labelBackgroundColor=none;" parent="1" source="S_lzEyKgsAEVn-ZIzgIa-6" edge="1">
          <mxGeometry width="50" height="50" relative="1" as="geometry">
            <mxPoint x="143" y="-75" as="sourcePoint" />
            <mxPoint x="-23" y="-36" as="targetPoint" />
            <Array as="points">
              <mxPoint x="-57" y="-21" />
            </Array>
          </mxGeometry>
        </mxCell>
        <mxCell id="82Mbd64pfrccDyr7gUXQ-3" value="" style="endArrow=none;html=1;rounded=0;strokeColor=#788AA3;fontColor=default;fillColor=#B2C9AB;exitX=1;exitY=1;exitDx=0;exitDy=0;entryX=-0.008;entryY=0.014;entryDx=0;entryDy=0;entryPerimeter=0;labelBackgroundColor=none;" parent="1" source="S_lzEyKgsAEVn-ZIzgIa-6" target="lTJQXbJdY5565hRLX1Yf-14" edge="1">
          <mxGeometry width="50" height="50" relative="1" as="geometry">
            <mxPoint x="143" y="-75" as="sourcePoint" />
            <mxPoint x="193" y="-125" as="targetPoint" />
          </mxGeometry>
        </mxCell>
        <mxCell id="82Mbd64pfrccDyr7gUXQ-4" value="" style="endArrow=none;html=1;rounded=0;strokeColor=#788AA3;fontColor=default;fillColor=#B2C9AB;exitX=0;exitY=0.5;exitDx=0;exitDy=0;entryX=1.052;entryY=0.498;entryDx=0;entryDy=0;entryPerimeter=0;labelBackgroundColor=none;" parent="1" source="S_lzEyKgsAEVn-ZIzgIa-2" target="lTJQXbJdY5565hRLX1Yf-5" edge="1">
          <mxGeometry width="50" height="50" relative="1" as="geometry">
            <mxPoint x="143" y="-75" as="sourcePoint" />
            <mxPoint x="193" y="-125" as="targetPoint" />
          </mxGeometry>
        </mxCell>
      </root>
    </mxGraphModel>
  </diagram>
  <diagram id="_mcWRNQCUttosRXKGioE" name="2. Numero secreto del 1 al 10">
    <mxGraphModel dx="786" dy="463" grid="0" gridSize="10" guides="1" tooltips="1" connect="1" arrows="1" fold="1" page="1" pageScale="1" pageWidth="827" pageHeight="1169" math="0" shadow="0">
      <root>
        <mxCell id="0" />
        <mxCell id="1" parent="0" />
        <mxCell id="A-Sp9yN5-H3enQpvIRw9-10" style="edgeStyle=orthogonalEdgeStyle;rounded=0;orthogonalLoop=1;jettySize=auto;html=1;exitX=1;exitY=0.5;exitDx=0;exitDy=0;exitPerimeter=0;entryX=0;entryY=0.5;entryDx=0;entryDy=0;fontColor=default;labelBackgroundColor=none;" parent="1" source="y2afyZLwvBUIPBBxgu-s-2" target="A-Sp9yN5-H3enQpvIRw9-2" edge="1">
          <mxGeometry relative="1" as="geometry" />
        </mxCell>
        <mxCell id="y2afyZLwvBUIPBBxgu-s-2" value="Inicio" style="strokeWidth=2;html=1;shape=mxgraph.flowchart.terminator;whiteSpace=wrap;labelBackgroundColor=none;" parent="1" vertex="1">
          <mxGeometry x="43" y="15" width="69" height="41" as="geometry" />
        </mxCell>
        <mxCell id="A-Sp9yN5-H3enQpvIRw9-1" value="Fin" style="strokeWidth=2;html=1;shape=mxgraph.flowchart.terminator;whiteSpace=wrap;labelBackgroundColor=none;" parent="1" vertex="1">
          <mxGeometry x="634" y="390" width="69" height="41" as="geometry" />
        </mxCell>
        <mxCell id="A-Sp9yN5-H3enQpvIRw9-2" value="numero_secreto = 4" style="rounded=0;whiteSpace=wrap;html=1;labelBackgroundColor=none;" parent="1" vertex="1">
          <mxGeometry x="187" y="26" width="117" height="19" as="geometry" />
        </mxCell>
        <mxCell id="A-Sp9yN5-H3enQpvIRw9-3" value="&quot;Adivine el número secreto del 1 al 10&quot;" style="shape=display;whiteSpace=wrap;html=1;labelBackgroundColor=none;" parent="1" vertex="1">
          <mxGeometry x="106" y="87" width="249" height="32" as="geometry" />
        </mxCell>
        <mxCell id="A-Sp9yN5-H3enQpvIRw9-5" value="numero != numero_secreto" style="rhombus;whiteSpace=wrap;html=1;labelBackgroundColor=none;" parent="1" vertex="1">
          <mxGeometry x="375" y="120" width="181" height="105" as="geometry" />
        </mxCell>
        <mxCell id="A-Sp9yN5-H3enQpvIRw9-13" style="edgeStyle=orthogonalEdgeStyle;rounded=0;orthogonalLoop=1;jettySize=auto;html=1;exitX=1;exitY=0.5;exitDx=0;exitDy=0;fontColor=default;labelBackgroundColor=none;" parent="1" source="A-Sp9yN5-H3enQpvIRw9-6" edge="1">
          <mxGeometry relative="1" as="geometry">
            <mxPoint x="364.33338928222656" y="173" as="targetPoint" />
          </mxGeometry>
        </mxCell>
        <mxCell id="A-Sp9yN5-H3enQpvIRw9-6" value="numero" style="shape=parallelogram;perimeter=parallelogramPerimeter;whiteSpace=wrap;html=1;fixedSize=1;labelBackgroundColor=none;" parent="1" vertex="1">
          <mxGeometry x="198" y="156" width="95" height="34" as="geometry" />
        </mxCell>
        <mxCell id="A-Sp9yN5-H3enQpvIRw9-23" style="edgeStyle=orthogonalEdgeStyle;rounded=0;orthogonalLoop=1;jettySize=auto;html=1;exitX=0;exitY=0.5;exitDx=0;exitDy=0;exitPerimeter=0;fontColor=default;labelBackgroundColor=none;" parent="1" source="A-Sp9yN5-H3enQpvIRw9-7" edge="1">
          <mxGeometry relative="1" as="geometry">
            <mxPoint x="248" y="205" as="targetPoint" />
          </mxGeometry>
        </mxCell>
        <mxCell id="A-Sp9yN5-H3enQpvIRw9-7" value="&quot;No has acertado, intenta de nuevo&quot;" style="shape=display;whiteSpace=wrap;html=1;labelBackgroundColor=none;" parent="1" vertex="1">
          <mxGeometry x="309" y="318" width="125" height="53" as="geometry" />
        </mxCell>
        <mxCell id="A-Sp9yN5-H3enQpvIRw9-8" value="Verdadero" style="text;html=1;align=center;verticalAlign=middle;resizable=0;points=[];autosize=1;strokeColor=none;fillColor=none;labelBackgroundColor=none;" parent="1" vertex="1">
          <mxGeometry x="335" y="262" width="73" height="26" as="geometry" />
        </mxCell>
        <mxCell id="A-Sp9yN5-H3enQpvIRw9-9" value="&amp;nbsp; &amp;nbsp; &amp;nbsp;Falso" style="text;html=1;align=center;verticalAlign=middle;resizable=0;points=[];autosize=1;strokeColor=none;fillColor=none;labelBackgroundColor=none;" parent="1" vertex="1">
          <mxGeometry x="634" y="160" width="64" height="26" as="geometry" />
        </mxCell>
        <mxCell id="A-Sp9yN5-H3enQpvIRw9-11" style="edgeStyle=orthogonalEdgeStyle;rounded=0;orthogonalLoop=1;jettySize=auto;html=1;exitX=0.5;exitY=1;exitDx=0;exitDy=0;entryX=0.558;entryY=0.01;entryDx=0;entryDy=0;entryPerimeter=0;fontColor=default;labelBackgroundColor=none;" parent="1" source="A-Sp9yN5-H3enQpvIRw9-2" target="A-Sp9yN5-H3enQpvIRw9-3" edge="1">
          <mxGeometry relative="1" as="geometry" />
        </mxCell>
        <mxCell id="A-Sp9yN5-H3enQpvIRw9-12" style="edgeStyle=orthogonalEdgeStyle;rounded=0;orthogonalLoop=1;jettySize=auto;html=1;exitX=0;exitY=0;exitDx=147.625;exitDy=32;exitPerimeter=0;fontColor=default;labelBackgroundColor=none;" parent="1" source="A-Sp9yN5-H3enQpvIRw9-3" edge="1">
          <mxGeometry relative="1" as="geometry">
            <mxPoint x="258" y="149" as="targetPoint" />
          </mxGeometry>
        </mxCell>
        <mxCell id="A-Sp9yN5-H3enQpvIRw9-16" value="" style="endArrow=classic;html=1;rounded=0;fontColor=default;exitX=0.53;exitY=1.051;exitDx=0;exitDy=0;exitPerimeter=0;entryX=0;entryY=0;entryDx=64.875;entryDy=0;entryPerimeter=0;labelBackgroundColor=none;" parent="1" source="A-Sp9yN5-H3enQpvIRw9-8" target="A-Sp9yN5-H3enQpvIRw9-7" edge="1">
          <mxGeometry width="50" height="50" relative="1" as="geometry">
            <mxPoint x="340" y="268" as="sourcePoint" />
            <mxPoint x="390" y="218" as="targetPoint" />
          </mxGeometry>
        </mxCell>
        <mxCell id="A-Sp9yN5-H3enQpvIRw9-24" value="" style="endArrow=classic;html=1;rounded=0;fontColor=default;exitX=0.599;exitY=1.077;exitDx=0;exitDy=0;exitPerimeter=0;labelBackgroundColor=none;" parent="1" source="A-Sp9yN5-H3enQpvIRw9-9" edge="1">
          <mxGeometry width="50" height="50" relative="1" as="geometry">
            <mxPoint x="340" y="268" as="sourcePoint" />
            <mxPoint x="672" y="278" as="targetPoint" />
          </mxGeometry>
        </mxCell>
        <mxCell id="A-Sp9yN5-H3enQpvIRw9-28" style="edgeStyle=orthogonalEdgeStyle;rounded=0;orthogonalLoop=1;jettySize=auto;html=1;exitX=0;exitY=0;exitDx=170.25;exitDy=49;exitPerimeter=0;fontColor=default;labelBackgroundColor=none;" parent="1" source="A-Sp9yN5-H3enQpvIRw9-27" edge="1">
          <mxGeometry relative="1" as="geometry">
            <mxPoint x="671" y="383.3333740234375" as="targetPoint" />
          </mxGeometry>
        </mxCell>
        <mxCell id="A-Sp9yN5-H3enQpvIRw9-27" value="&lt;span style=&quot;text-wrap-mode: nowrap;&quot;&gt;&quot;Felicidades, has descubierto el número secreto&quot;&lt;/span&gt;" style="shape=display;whiteSpace=wrap;html=1;labelBackgroundColor=none;" parent="1" vertex="1">
          <mxGeometry x="501" y="281" width="292" height="49" as="geometry" />
        </mxCell>
        <mxCell id="XC9yD3du6icEg-Cr7tPi-1" value="" style="endArrow=none;html=1;rounded=0;fontColor=default;exitX=1;exitY=0.5;exitDx=0;exitDy=0;entryX=-0.031;entryY=0.462;entryDx=0;entryDy=0;entryPerimeter=0;labelBackgroundColor=none;" edge="1" parent="1" source="A-Sp9yN5-H3enQpvIRw9-5" target="A-Sp9yN5-H3enQpvIRw9-9">
          <mxGeometry width="50" height="50" relative="1" as="geometry">
            <mxPoint x="379" y="268" as="sourcePoint" />
            <mxPoint x="429" y="218" as="targetPoint" />
          </mxGeometry>
        </mxCell>
        <mxCell id="XC9yD3du6icEg-Cr7tPi-2" value="" style="endArrow=none;html=1;rounded=0;fontColor=default;labelBackgroundColor=none;" edge="1" parent="1">
          <mxGeometry width="50" height="50" relative="1" as="geometry">
            <mxPoint x="384" y="256" as="sourcePoint" />
            <mxPoint x="434" y="206" as="targetPoint" />
          </mxGeometry>
        </mxCell>
      </root>
    </mxGraphModel>
  </diagram>
  <diagram id="Hj_TNViP9OshXmsMOCsb" name="3. 30, o si los 3 sumados dan 30">
    <mxGraphModel dx="925" dy="545" grid="0" gridSize="10" guides="1" tooltips="1" connect="1" arrows="1" fold="1" page="1" pageScale="1" pageWidth="827" pageHeight="1169" math="0" shadow="0">
      <root>
        <mxCell id="0" />
        <mxCell id="1" parent="0" />
        <mxCell id="VPt4qs3tx5frVHRsy5Uf-1" value="Inicio" style="strokeWidth=2;html=1;shape=mxgraph.flowchart.terminator;whiteSpace=wrap;labelBackgroundColor=none;" parent="1" vertex="1">
          <mxGeometry x="69.5" y="3" width="53" height="21" as="geometry" />
        </mxCell>
        <mxCell id="VPt4qs3tx5frVHRsy5Uf-2" value="Fin" style="strokeWidth=2;html=1;shape=mxgraph.flowchart.terminator;whiteSpace=wrap;labelBackgroundColor=none;" parent="1" vertex="1">
          <mxGeometry x="571" y="413.75" width="35" height="20" as="geometry" />
        </mxCell>
        <mxCell id="80eskcfAWxo_lNhpXfbR-11" style="edgeStyle=orthogonalEdgeStyle;rounded=0;orthogonalLoop=1;jettySize=auto;html=1;exitX=1;exitY=0.5;exitDx=0;exitDy=0;exitPerimeter=0;entryX=0;entryY=0.5;entryDx=0;entryDy=0;fontColor=default;labelBackgroundColor=none;" parent="1" source="Ov4qbo9qHwgcgKbsSDVj-1" target="TpSPtgoq34fm6CNrQ21F-2" edge="1">
          <mxGeometry relative="1" as="geometry" />
        </mxCell>
        <mxCell id="Ov4qbo9qHwgcgKbsSDVj-1" value="&quot;Ingrese el primer número&quot;" style="shape=display;whiteSpace=wrap;html=1;labelBackgroundColor=none;" parent="1" vertex="1">
          <mxGeometry x="51" y="47" width="169" height="38" as="geometry" />
        </mxCell>
        <mxCell id="80eskcfAWxo_lNhpXfbR-13" style="edgeStyle=orthogonalEdgeStyle;rounded=0;orthogonalLoop=1;jettySize=auto;html=1;exitX=0;exitY=0.5;exitDx=0;exitDy=0;exitPerimeter=0;fontColor=default;labelBackgroundColor=none;" parent="1" source="Ov4qbo9qHwgcgKbsSDVj-2" edge="1">
          <mxGeometry relative="1" as="geometry">
            <mxPoint x="177.41178265739882" y="127.94117647058829" as="targetPoint" />
          </mxGeometry>
        </mxCell>
        <mxCell id="Ov4qbo9qHwgcgKbsSDVj-2" value="&quot;Ingrese el segundo número&quot;" style="shape=display;whiteSpace=wrap;html=1;labelBackgroundColor=none;" parent="1" vertex="1">
          <mxGeometry x="203" y="106" width="183.5" height="44" as="geometry" />
        </mxCell>
        <mxCell id="80eskcfAWxo_lNhpXfbR-15" style="edgeStyle=orthogonalEdgeStyle;rounded=0;orthogonalLoop=1;jettySize=auto;html=1;exitX=1;exitY=0.5;exitDx=0;exitDy=0;exitPerimeter=0;entryX=0;entryY=0.5;entryDx=0;entryDy=0;fontColor=default;labelBackgroundColor=none;" parent="1" source="TpSPtgoq34fm6CNrQ21F-1" target="80eskcfAWxo_lNhpXfbR-3" edge="1">
          <mxGeometry relative="1" as="geometry" />
        </mxCell>
        <mxCell id="TpSPtgoq34fm6CNrQ21F-1" value="&quot;Ingrese el tercer número&quot;" style="shape=display;whiteSpace=wrap;html=1;labelBackgroundColor=none;" parent="1" vertex="1">
          <mxGeometry x="57" y="189" width="126" height="45" as="geometry" />
        </mxCell>
        <mxCell id="80eskcfAWxo_lNhpXfbR-31" style="edgeStyle=orthogonalEdgeStyle;rounded=0;orthogonalLoop=1;jettySize=auto;html=1;exitX=0.5;exitY=1;exitDx=0;exitDy=0;fontColor=default;labelBackgroundColor=none;" parent="1" source="TpSPtgoq34fm6CNrQ21F-2" edge="1">
          <mxGeometry relative="1" as="geometry">
            <mxPoint x="298.5882352941178" y="104.80393353630518" as="targetPoint" />
          </mxGeometry>
        </mxCell>
        <mxCell id="TpSPtgoq34fm6CNrQ21F-2" value="primer_numero" style="shape=parallelogram;perimeter=parallelogramPerimeter;whiteSpace=wrap;html=1;fixedSize=1;labelBackgroundColor=none;" parent="1" vertex="1">
          <mxGeometry x="245" y="44" width="107" height="44" as="geometry" />
        </mxCell>
        <mxCell id="80eskcfAWxo_lNhpXfbR-1" value="segundo_numero" style="shape=parallelogram;perimeter=parallelogramPerimeter;whiteSpace=wrap;html=1;fixedSize=1;labelBackgroundColor=none;" parent="1" vertex="1">
          <mxGeometry x="57" y="100.5" width="120" height="60" as="geometry" />
        </mxCell>
        <mxCell id="80eskcfAWxo_lNhpXfbR-17" style="edgeStyle=orthogonalEdgeStyle;rounded=0;orthogonalLoop=1;jettySize=auto;html=1;exitX=0.5;exitY=1;exitDx=0;exitDy=0;fontColor=default;labelBackgroundColor=none;" parent="1" source="80eskcfAWxo_lNhpXfbR-3" edge="1">
          <mxGeometry relative="1" as="geometry">
            <mxPoint x="295.0588235294117" y="269.5098158892464" as="targetPoint" />
          </mxGeometry>
        </mxCell>
        <mxCell id="80eskcfAWxo_lNhpXfbR-3" value="tercer_numero" style="shape=parallelogram;perimeter=parallelogramPerimeter;whiteSpace=wrap;html=1;fixedSize=1;labelBackgroundColor=none;" parent="1" vertex="1">
          <mxGeometry x="239.75" y="189" width="110" height="44" as="geometry" />
        </mxCell>
        <mxCell id="80eskcfAWxo_lNhpXfbR-18" style="edgeStyle=orthogonalEdgeStyle;rounded=0;orthogonalLoop=1;jettySize=auto;html=1;exitX=0.25;exitY=1;exitDx=0;exitDy=0;fontColor=default;labelBackgroundColor=none;" parent="1" source="80eskcfAWxo_lNhpXfbR-4" edge="1">
          <mxGeometry relative="1" as="geometry">
            <mxPoint x="182.11764705882365" y="321.2745217715993" as="targetPoint" />
          </mxGeometry>
        </mxCell>
        <mxCell id="80eskcfAWxo_lNhpXfbR-4" value="suma = primer_numero + segundo_numero + tercer_numero" style="rounded=0;whiteSpace=wrap;html=1;labelBackgroundColor=none;" parent="1" vertex="1">
          <mxGeometry x="98" y="274" width="335" height="23" as="geometry" />
        </mxCell>
        <mxCell id="80eskcfAWxo_lNhpXfbR-5" value="primer_numero = 30 o segundo_numero = 30 o tercer_numero = 30 o suma = 30" style="rhombus;whiteSpace=wrap;html=1;labelBackgroundColor=none;" parent="1" vertex="1">
          <mxGeometry x="27" y="327" width="309" height="193.5" as="geometry" />
        </mxCell>
        <mxCell id="80eskcfAWxo_lNhpXfbR-8" value="&quot;Correcto&quot;" style="shape=display;whiteSpace=wrap;html=1;labelBackgroundColor=none;" parent="1" vertex="1">
          <mxGeometry x="440" y="354" width="80" height="40" as="geometry" />
        </mxCell>
        <mxCell id="80eskcfAWxo_lNhpXfbR-30" style="edgeStyle=orthogonalEdgeStyle;rounded=0;orthogonalLoop=1;jettySize=auto;html=1;exitX=1;exitY=0.5;exitDx=0;exitDy=0;exitPerimeter=0;fontColor=default;labelBackgroundColor=none;" parent="1" source="80eskcfAWxo_lNhpXfbR-9" edge="1">
          <mxGeometry relative="1" as="geometry">
            <mxPoint x="588.3921508789062" y="435.7843017578125" as="targetPoint" />
          </mxGeometry>
        </mxCell>
        <mxCell id="80eskcfAWxo_lNhpXfbR-9" value="&quot;Incorrecto&quot;" style="shape=display;whiteSpace=wrap;html=1;labelBackgroundColor=none;" parent="1" vertex="1">
          <mxGeometry x="438" y="452" width="80" height="40" as="geometry" />
        </mxCell>
        <mxCell id="80eskcfAWxo_lNhpXfbR-10" style="edgeStyle=orthogonalEdgeStyle;rounded=0;orthogonalLoop=1;jettySize=auto;html=1;exitX=0.89;exitY=0.89;exitDx=0;exitDy=0;exitPerimeter=0;entryX=0.372;entryY=0.035;entryDx=0;entryDy=0;entryPerimeter=0;fontColor=default;labelBackgroundColor=none;" parent="1" source="VPt4qs3tx5frVHRsy5Uf-1" target="Ov4qbo9qHwgcgKbsSDVj-1" edge="1">
          <mxGeometry relative="1" as="geometry" />
        </mxCell>
        <mxCell id="80eskcfAWxo_lNhpXfbR-14" style="edgeStyle=orthogonalEdgeStyle;rounded=0;orthogonalLoop=1;jettySize=auto;html=1;exitX=0.75;exitY=1;exitDx=0;exitDy=0;fontColor=default;labelBackgroundColor=none;" parent="1" source="80eskcfAWxo_lNhpXfbR-1" edge="1">
          <mxGeometry relative="1" as="geometry">
            <mxPoint x="150" y="181" as="targetPoint" />
          </mxGeometry>
        </mxCell>
        <mxCell id="80eskcfAWxo_lNhpXfbR-19" value="Verdadero" style="text;html=1;align=center;verticalAlign=middle;resizable=0;points=[];autosize=1;strokeColor=none;fillColor=none;labelBackgroundColor=none;" parent="1" vertex="1">
          <mxGeometry x="304" y="361" width="73" height="26" as="geometry" />
        </mxCell>
        <mxCell id="80eskcfAWxo_lNhpXfbR-20" value="Falso" style="text;html=1;align=center;verticalAlign=middle;resizable=0;points=[];autosize=1;strokeColor=none;fillColor=none;labelBackgroundColor=none;" parent="1" vertex="1">
          <mxGeometry x="310" y="462" width="47" height="26" as="geometry" />
        </mxCell>
        <mxCell id="80eskcfAWxo_lNhpXfbR-27" value="" style="endArrow=classic;html=1;rounded=0;fontColor=default;exitX=0.995;exitY=0.554;exitDx=0;exitDy=0;exitPerimeter=0;entryX=0;entryY=0.5;entryDx=0;entryDy=0;entryPerimeter=0;labelBackgroundColor=none;" parent="1" source="80eskcfAWxo_lNhpXfbR-19" target="80eskcfAWxo_lNhpXfbR-8" edge="1">
          <mxGeometry width="50" height="50" relative="1" as="geometry">
            <mxPoint x="387" y="502" as="sourcePoint" />
            <mxPoint x="437" y="452" as="targetPoint" />
          </mxGeometry>
        </mxCell>
        <mxCell id="80eskcfAWxo_lNhpXfbR-28" value="" style="endArrow=classic;html=1;rounded=0;fontColor=default;exitX=0.967;exitY=0.44;exitDx=0;exitDy=0;exitPerimeter=0;entryX=0;entryY=0.5;entryDx=0;entryDy=0;entryPerimeter=0;labelBackgroundColor=none;" parent="1" source="80eskcfAWxo_lNhpXfbR-20" target="80eskcfAWxo_lNhpXfbR-9" edge="1">
          <mxGeometry width="50" height="50" relative="1" as="geometry">
            <mxPoint x="387" y="502" as="sourcePoint" />
            <mxPoint x="437" y="452" as="targetPoint" />
          </mxGeometry>
        </mxCell>
        <mxCell id="80eskcfAWxo_lNhpXfbR-29" style="edgeStyle=orthogonalEdgeStyle;rounded=0;orthogonalLoop=1;jettySize=auto;html=1;exitX=1;exitY=0.5;exitDx=0;exitDy=0;exitPerimeter=0;entryX=0.5;entryY=0;entryDx=0;entryDy=0;entryPerimeter=0;fontColor=default;labelBackgroundColor=none;" parent="1" source="80eskcfAWxo_lNhpXfbR-8" target="VPt4qs3tx5frVHRsy5Uf-2" edge="1">
          <mxGeometry relative="1" as="geometry" />
        </mxCell>
        <mxCell id="Yzpwp2fSwBbnHeEAjdKo-1" value="" style="endArrow=none;html=1;rounded=0;fontColor=default;exitX=1;exitY=0;exitDx=0;exitDy=0;labelBackgroundColor=none;" edge="1" parent="1" source="80eskcfAWxo_lNhpXfbR-5" target="80eskcfAWxo_lNhpXfbR-19">
          <mxGeometry width="50" height="50" relative="1" as="geometry">
            <mxPoint x="377" y="267" as="sourcePoint" />
            <mxPoint x="427" y="217" as="targetPoint" />
          </mxGeometry>
        </mxCell>
        <mxCell id="Yzpwp2fSwBbnHeEAjdKo-2" value="" style="endArrow=none;html=1;rounded=0;fontColor=default;exitX=1;exitY=1;exitDx=0;exitDy=0;entryX=-0.044;entryY=0.44;entryDx=0;entryDy=0;entryPerimeter=0;labelBackgroundColor=none;" edge="1" parent="1" source="80eskcfAWxo_lNhpXfbR-5" target="80eskcfAWxo_lNhpXfbR-20">
          <mxGeometry width="50" height="50" relative="1" as="geometry">
            <mxPoint x="377" y="267" as="sourcePoint" />
            <mxPoint x="427" y="217" as="targetPoint" />
          </mxGeometry>
        </mxCell>
      </root>
    </mxGraphModel>
  </diagram>
  <diagram id="pHtN_waltqnY7PrByv52" name="1.1E. Pida 5 números al usuario y muestre el mayor">
    <mxGraphModel dx="1186" dy="863" grid="0" gridSize="10" guides="1" tooltips="1" connect="1" arrows="1" fold="1" page="0" pageScale="1" pageWidth="827" pageHeight="1169" math="0" shadow="0">
      <root>
        <mxCell id="0" />
        <mxCell id="1" parent="0" />
        <mxCell id="TAK6fawFedXXPDWhKahA-1" value="Fin" style="strokeWidth=2;html=1;shape=mxgraph.flowchart.terminator;whiteSpace=wrap;strokeColor=#E07A5F;fontColor=#393C56;fillColor=#F2CC8F;" vertex="1" parent="1">
          <mxGeometry x="119" y="309" width="68" height="31" as="geometry" />
        </mxCell>
        <mxCell id="TAK6fawFedXXPDWhKahA-2" value="Inicio" style="strokeWidth=2;html=1;shape=mxgraph.flowchart.terminator;whiteSpace=wrap;strokeColor=#E07A5F;fontColor=#393C56;fillColor=#F2CC8F;" vertex="1" parent="1">
          <mxGeometry x="-152" y="-16" width="60" height="23" as="geometry" />
        </mxCell>
        <mxCell id="TAK6fawFedXXPDWhKahA-7" style="edgeStyle=orthogonalEdgeStyle;rounded=0;orthogonalLoop=1;jettySize=auto;html=1;exitX=1;exitY=0.5;exitDx=0;exitDy=0;strokeColor=#E07A5F;fontColor=#393C56;fillColor=#F2CC8F;" edge="1" parent="1" source="TAK6fawFedXXPDWhKahA-3">
          <mxGeometry relative="1" as="geometry">
            <mxPoint x="106.66668701171875" y="-5" as="targetPoint" />
          </mxGeometry>
        </mxCell>
        <mxCell id="TAK6fawFedXXPDWhKahA-3" value="mayor = -9999999" style="rounded=0;whiteSpace=wrap;html=1;strokeColor=#E07A5F;fontColor=#393C56;fillColor=#F2CC8F;" vertex="1" parent="1">
          <mxGeometry x="-41" y="-16" width="111" height="21" as="geometry" />
        </mxCell>
        <mxCell id="TAK6fawFedXXPDWhKahA-8" style="edgeStyle=orthogonalEdgeStyle;rounded=0;orthogonalLoop=1;jettySize=auto;html=1;exitX=0.5;exitY=1;exitDx=0;exitDy=0;entryX=0.5;entryY=0;entryDx=0;entryDy=0;strokeColor=#E07A5F;fontColor=#393C56;fillColor=#F2CC8F;" edge="1" parent="1" source="TAK6fawFedXXPDWhKahA-4" target="TAK6fawFedXXPDWhKahA-5">
          <mxGeometry relative="1" as="geometry" />
        </mxCell>
        <mxCell id="TAK6fawFedXXPDWhKahA-4" value="contador = 1" style="rounded=0;whiteSpace=wrap;html=1;strokeColor=#E07A5F;fontColor=#393C56;fillColor=#F2CC8F;" vertex="1" parent="1">
          <mxGeometry x="108" y="-16" width="99" height="21" as="geometry" />
        </mxCell>
        <mxCell id="TAK6fawFedXXPDWhKahA-5" value="contador &amp;lt;= 5" style="rhombus;whiteSpace=wrap;html=1;strokeColor=#E07A5F;fontColor=#393C56;fillColor=#F2CC8F;" vertex="1" parent="1">
          <mxGeometry x="102.5" y="45" width="110" height="41" as="geometry" />
        </mxCell>
        <mxCell id="TAK6fawFedXXPDWhKahA-6" value="" style="endArrow=classic;html=1;rounded=0;strokeColor=#E07A5F;fontColor=#393C56;fillColor=#F2CC8F;exitX=1;exitY=0.5;exitDx=0;exitDy=0;exitPerimeter=0;entryX=0;entryY=0.5;entryDx=0;entryDy=0;" edge="1" parent="1" source="TAK6fawFedXXPDWhKahA-2" target="TAK6fawFedXXPDWhKahA-3">
          <mxGeometry width="50" height="50" relative="1" as="geometry">
            <mxPoint x="175" y="225" as="sourcePoint" />
            <mxPoint x="225" y="175" as="targetPoint" />
          </mxGeometry>
        </mxCell>
        <mxCell id="TAK6fawFedXXPDWhKahA-9" value="Verdadero" style="text;html=1;align=center;verticalAlign=middle;resizable=0;points=[];autosize=1;strokeColor=none;fillColor=none;fontColor=#393C56;" vertex="1" parent="1">
          <mxGeometry x="-18" y="52.5" width="73" height="26" as="geometry" />
        </mxCell>
        <mxCell id="TAK6fawFedXXPDWhKahA-10" value="Falso" style="text;html=1;align=center;verticalAlign=middle;resizable=0;points=[];autosize=1;strokeColor=none;fillColor=none;fontColor=#393C56;" vertex="1" parent="1">
          <mxGeometry x="279" y="52.5" width="47" height="26" as="geometry" />
        </mxCell>
        <mxCell id="p2_-HlaX71UIQ7JGLBBK-5" style="edgeStyle=orthogonalEdgeStyle;rounded=0;orthogonalLoop=1;jettySize=auto;html=1;exitX=0.5;exitY=1;exitDx=0;exitDy=0;exitPerimeter=0;entryX=0.5;entryY=0;entryDx=0;entryDy=0;strokeColor=#E07A5F;fontColor=#393C56;fillColor=#F2CC8F;" edge="1" parent="1" source="TAK6fawFedXXPDWhKahA-11" target="TAK6fawFedXXPDWhKahA-12">
          <mxGeometry relative="1" as="geometry" />
        </mxCell>
        <mxCell id="TAK6fawFedXXPDWhKahA-11" value="&quot;Ingrese número&quot;" style="strokeWidth=2;html=1;shape=mxgraph.flowchart.display;whiteSpace=wrap;strokeColor=#E07A5F;fontColor=#393C56;fillColor=#F2CC8F;" vertex="1" parent="1">
          <mxGeometry x="-169" y="43.5" width="104" height="44" as="geometry" />
        </mxCell>
        <mxCell id="p2_-HlaX71UIQ7JGLBBK-6" style="edgeStyle=orthogonalEdgeStyle;rounded=0;orthogonalLoop=1;jettySize=auto;html=1;exitX=0.5;exitY=1;exitDx=0;exitDy=0;entryX=0.5;entryY=0;entryDx=0;entryDy=0;strokeColor=#E07A5F;fontColor=#393C56;fillColor=#F2CC8F;" edge="1" parent="1" source="TAK6fawFedXXPDWhKahA-12" target="TAK6fawFedXXPDWhKahA-13">
          <mxGeometry relative="1" as="geometry" />
        </mxCell>
        <mxCell id="TAK6fawFedXXPDWhKahA-12" value="numero" style="shape=parallelogram;perimeter=parallelogramPerimeter;whiteSpace=wrap;html=1;fixedSize=1;strokeColor=#E07A5F;fontColor=#393C56;fillColor=#F2CC8F;" vertex="1" parent="1">
          <mxGeometry x="-158.5" y="111" width="83" height="21" as="geometry" />
        </mxCell>
        <mxCell id="TAK6fawFedXXPDWhKahA-13" value="mayor &amp;lt; numero" style="rhombus;whiteSpace=wrap;html=1;strokeColor=#E07A5F;fontColor=#393C56;fillColor=#F2CC8F;" vertex="1" parent="1">
          <mxGeometry x="-169" y="150" width="106" height="55" as="geometry" />
        </mxCell>
        <mxCell id="TAK6fawFedXXPDWhKahA-14" value="Verdadero" style="text;html=1;align=center;verticalAlign=middle;resizable=0;points=[];autosize=1;strokeColor=none;fillColor=none;fontColor=#393C56;" vertex="1" parent="1">
          <mxGeometry x="-270" y="164.5" width="73" height="26" as="geometry" />
        </mxCell>
        <mxCell id="TAK6fawFedXXPDWhKahA-15" value="Falso" style="text;html=1;align=center;verticalAlign=middle;resizable=0;points=[];autosize=1;strokeColor=none;fillColor=none;fontColor=#393C56;" vertex="1" parent="1">
          <mxGeometry x="-24" y="164.5" width="47" height="26" as="geometry" />
        </mxCell>
        <mxCell id="p2_-HlaX71UIQ7JGLBBK-10" style="edgeStyle=orthogonalEdgeStyle;rounded=0;orthogonalLoop=1;jettySize=auto;html=1;exitX=1;exitY=0.5;exitDx=0;exitDy=0;entryX=0;entryY=0.25;entryDx=0;entryDy=0;strokeColor=#E07A5F;fontColor=#393C56;fillColor=#F2CC8F;" edge="1" parent="1" source="TAK6fawFedXXPDWhKahA-16" target="p2_-HlaX71UIQ7JGLBBK-1">
          <mxGeometry relative="1" as="geometry" />
        </mxCell>
        <mxCell id="TAK6fawFedXXPDWhKahA-16" value="mayor = numero" style="rounded=0;whiteSpace=wrap;html=1;strokeColor=#E07A5F;fontColor=#393C56;fillColor=#F2CC8F;" vertex="1" parent="1">
          <mxGeometry x="-281.5" y="224" width="96" height="23" as="geometry" />
        </mxCell>
        <mxCell id="TAK6fawFedXXPDWhKahA-17" value="&quot;El número mayor es&quot;&amp;nbsp;mayor" style="strokeWidth=2;html=1;shape=mxgraph.flowchart.display;whiteSpace=wrap;strokeColor=#E07A5F;fontColor=#393C56;fillColor=#F2CC8F;" vertex="1" parent="1">
          <mxGeometry x="217" y="202" width="171" height="67" as="geometry" />
        </mxCell>
        <mxCell id="p2_-HlaX71UIQ7JGLBBK-12" style="edgeStyle=orthogonalEdgeStyle;rounded=0;orthogonalLoop=1;jettySize=auto;html=1;exitX=0.75;exitY=0;exitDx=0;exitDy=0;entryX=0.5;entryY=1;entryDx=0;entryDy=0;strokeColor=#E07A5F;fontColor=#393C56;fillColor=#F2CC8F;" edge="1" parent="1" source="p2_-HlaX71UIQ7JGLBBK-1" target="TAK6fawFedXXPDWhKahA-5">
          <mxGeometry relative="1" as="geometry" />
        </mxCell>
        <mxCell id="p2_-HlaX71UIQ7JGLBBK-1" value="contador = contador + 1" style="rounded=0;whiteSpace=wrap;html=1;strokeColor=#E07A5F;fontColor=#393C56;fillColor=#F2CC8F;" vertex="1" parent="1">
          <mxGeometry x="-52.5" y="230" width="142" height="21" as="geometry" />
        </mxCell>
        <mxCell id="p2_-HlaX71UIQ7JGLBBK-2" value="" style="endArrow=none;html=1;rounded=0;strokeColor=#E07A5F;fontColor=#393C56;fillColor=#F2CC8F;exitX=0;exitY=0.5;exitDx=0;exitDy=0;entryX=1.014;entryY=0.545;entryDx=0;entryDy=0;entryPerimeter=0;" edge="1" parent="1" source="TAK6fawFedXXPDWhKahA-5" target="TAK6fawFedXXPDWhKahA-9">
          <mxGeometry width="50" height="50" relative="1" as="geometry">
            <mxPoint x="6" y="225" as="sourcePoint" />
            <mxPoint x="56" y="175" as="targetPoint" />
          </mxGeometry>
        </mxCell>
        <mxCell id="p2_-HlaX71UIQ7JGLBBK-4" value="" style="endArrow=classic;html=1;rounded=0;strokeColor=#E07A5F;fontColor=#393C56;fillColor=#F2CC8F;exitX=0.009;exitY=0.494;exitDx=0;exitDy=0;exitPerimeter=0;entryX=1;entryY=0.5;entryDx=0;entryDy=0;entryPerimeter=0;" edge="1" parent="1" source="TAK6fawFedXXPDWhKahA-9" target="TAK6fawFedXXPDWhKahA-11">
          <mxGeometry width="50" height="50" relative="1" as="geometry">
            <mxPoint x="6" y="225" as="sourcePoint" />
            <mxPoint x="56" y="175" as="targetPoint" />
          </mxGeometry>
        </mxCell>
        <mxCell id="p2_-HlaX71UIQ7JGLBBK-7" value="" style="endArrow=none;html=1;rounded=0;strokeColor=#E07A5F;fontColor=#393C56;fillColor=#F2CC8F;exitX=0;exitY=0.5;exitDx=0;exitDy=0;" edge="1" parent="1" source="TAK6fawFedXXPDWhKahA-13" target="TAK6fawFedXXPDWhKahA-14">
          <mxGeometry width="50" height="50" relative="1" as="geometry">
            <mxPoint x="6" y="225" as="sourcePoint" />
            <mxPoint x="56" y="175" as="targetPoint" />
          </mxGeometry>
        </mxCell>
        <mxCell id="p2_-HlaX71UIQ7JGLBBK-8" value="" style="endArrow=none;html=1;rounded=0;strokeColor=#E07A5F;fontColor=#393C56;fillColor=#F2CC8F;exitX=1;exitY=0.5;exitDx=0;exitDy=0;entryX=-0.021;entryY=0.494;entryDx=0;entryDy=0;entryPerimeter=0;" edge="1" parent="1" source="TAK6fawFedXXPDWhKahA-13" target="TAK6fawFedXXPDWhKahA-15">
          <mxGeometry width="50" height="50" relative="1" as="geometry">
            <mxPoint x="6" y="225" as="sourcePoint" />
            <mxPoint x="56" y="175" as="targetPoint" />
          </mxGeometry>
        </mxCell>
        <mxCell id="p2_-HlaX71UIQ7JGLBBK-9" value="" style="endArrow=classic;html=1;rounded=0;strokeColor=#E07A5F;fontColor=#393C56;fillColor=#F2CC8F;exitX=0.502;exitY=1.006;exitDx=0;exitDy=0;exitPerimeter=0;entryX=0.5;entryY=0;entryDx=0;entryDy=0;" edge="1" parent="1" source="TAK6fawFedXXPDWhKahA-14" target="TAK6fawFedXXPDWhKahA-16">
          <mxGeometry width="50" height="50" relative="1" as="geometry">
            <mxPoint x="6" y="225" as="sourcePoint" />
            <mxPoint x="56" y="175" as="targetPoint" />
          </mxGeometry>
        </mxCell>
        <mxCell id="p2_-HlaX71UIQ7JGLBBK-11" value="" style="endArrow=classic;html=1;rounded=0;strokeColor=#E07A5F;fontColor=#393C56;fillColor=#F2CC8F;exitX=0.553;exitY=1.173;exitDx=0;exitDy=0;exitPerimeter=0;entryX=0.384;entryY=0.032;entryDx=0;entryDy=0;entryPerimeter=0;" edge="1" parent="1" source="TAK6fawFedXXPDWhKahA-15" target="p2_-HlaX71UIQ7JGLBBK-1">
          <mxGeometry width="50" height="50" relative="1" as="geometry">
            <mxPoint x="6" y="225" as="sourcePoint" />
            <mxPoint x="56" y="175" as="targetPoint" />
          </mxGeometry>
        </mxCell>
        <mxCell id="p2_-HlaX71UIQ7JGLBBK-13" value="" style="endArrow=none;html=1;rounded=0;strokeColor=#E07A5F;fontColor=#393C56;fillColor=#F2CC8F;exitX=1;exitY=0.5;exitDx=0;exitDy=0;entryX=-0.035;entryY=0.468;entryDx=0;entryDy=0;entryPerimeter=0;" edge="1" parent="1" source="TAK6fawFedXXPDWhKahA-5" target="TAK6fawFedXXPDWhKahA-10">
          <mxGeometry width="50" height="50" relative="1" as="geometry">
            <mxPoint x="6" y="225" as="sourcePoint" />
            <mxPoint x="56" y="175" as="targetPoint" />
          </mxGeometry>
        </mxCell>
        <mxCell id="p2_-HlaX71UIQ7JGLBBK-14" value="" style="endArrow=classic;html=1;rounded=0;strokeColor=#E07A5F;fontColor=#393C56;fillColor=#F2CC8F;exitX=0.518;exitY=1.006;exitDx=0;exitDy=0;exitPerimeter=0;entryX=0.5;entryY=0;entryDx=0;entryDy=0;entryPerimeter=0;" edge="1" parent="1" source="TAK6fawFedXXPDWhKahA-10" target="TAK6fawFedXXPDWhKahA-17">
          <mxGeometry width="50" height="50" relative="1" as="geometry">
            <mxPoint x="6" y="225" as="sourcePoint" />
            <mxPoint x="56" y="175" as="targetPoint" />
          </mxGeometry>
        </mxCell>
        <mxCell id="p2_-HlaX71UIQ7JGLBBK-15" style="edgeStyle=orthogonalEdgeStyle;rounded=0;orthogonalLoop=1;jettySize=auto;html=1;exitX=0.2;exitY=0.86;exitDx=0;exitDy=0;exitPerimeter=0;entryX=0.5;entryY=0;entryDx=0;entryDy=0;entryPerimeter=0;strokeColor=#E07A5F;fontColor=#393C56;fillColor=#F2CC8F;" edge="1" parent="1" source="TAK6fawFedXXPDWhKahA-17" target="TAK6fawFedXXPDWhKahA-1">
          <mxGeometry relative="1" as="geometry" />
        </mxCell>
      </root>
    </mxGraphModel>
  </diagram>
  <diagram id="I2lDASxU9qZdFyY8HDyW" name="1.2E. “FizzBuzz” ">
    <mxGraphModel dx="1586" dy="863" grid="0" gridSize="10" guides="1" tooltips="1" connect="1" arrows="1" fold="1" page="0" pageScale="1" pageWidth="827" pageHeight="1169" math="0" shadow="0">
      <root>
        <mxCell id="0" />
        <mxCell id="1" parent="0" />
        <mxCell id="LdQxJW9kwFtZR3ZvgxaN-3" value="Inicio" style="strokeWidth=2;html=1;shape=mxgraph.flowchart.terminator;whiteSpace=wrap;strokeColor=#E07A5F;fontColor=#393C56;fillColor=#F2CC8F;" parent="1" vertex="1">
          <mxGeometry x="-436" y="-28" width="61" height="33" as="geometry" />
        </mxCell>
        <mxCell id="nzCOSUnBj68kPDdlYN6e-1" value="Fin" style="strokeWidth=2;html=1;shape=mxgraph.flowchart.terminator;whiteSpace=wrap;strokeColor=#E07A5F;fontColor=#393C56;fillColor=#F2CC8F;" parent="1" vertex="1">
          <mxGeometry x="-285" y="381" width="70" height="30" as="geometry" />
        </mxCell>
        <mxCell id="fNWP0Sq-t-IBXWrhdog1-2" style="edgeStyle=orthogonalEdgeStyle;rounded=0;orthogonalLoop=1;jettySize=auto;html=1;exitX=1;exitY=0.5;exitDx=0;exitDy=0;exitPerimeter=0;entryX=0;entryY=0.5;entryDx=0;entryDy=0;" edge="1" parent="1" source="nzCOSUnBj68kPDdlYN6e-2" target="nzCOSUnBj68kPDdlYN6e-3">
          <mxGeometry relative="1" as="geometry" />
        </mxCell>
        <mxCell id="nzCOSUnBj68kPDdlYN6e-2" value="&quot;Ingrese número&quot;" style="strokeWidth=2;html=1;shape=mxgraph.flowchart.display;whiteSpace=wrap;strokeColor=#E07A5F;fontColor=#393C56;fillColor=#F2CC8F;" parent="1" vertex="1">
          <mxGeometry x="-305" y="-41.5" width="100" height="60" as="geometry" />
        </mxCell>
        <mxCell id="fNWP0Sq-t-IBXWrhdog1-3" style="edgeStyle=orthogonalEdgeStyle;rounded=0;orthogonalLoop=1;jettySize=auto;html=1;exitX=1;exitY=0.5;exitDx=0;exitDy=0;entryX=0;entryY=0.5;entryDx=0;entryDy=0;" edge="1" parent="1" source="nzCOSUnBj68kPDdlYN6e-3" target="5yZGIbC2o9t2ciNZHrLw-1">
          <mxGeometry relative="1" as="geometry" />
        </mxCell>
        <mxCell id="nzCOSUnBj68kPDdlYN6e-3" value="numero" style="shape=parallelogram;perimeter=parallelogramPerimeter;whiteSpace=wrap;html=1;fixedSize=1;strokeColor=#E07A5F;fontColor=#393C56;fillColor=#F2CC8F;" parent="1" vertex="1">
          <mxGeometry x="-147" y="-30.5" width="75" height="38" as="geometry" />
        </mxCell>
        <mxCell id="5yZGIbC2o9t2ciNZHrLw-1" value="numero % 3 = 0 y numero % 5 = 0" style="rhombus;whiteSpace=wrap;html=1;strokeColor=#E07A5F;fontColor=#393C56;fillColor=#F2CC8F;" parent="1" vertex="1">
          <mxGeometry x="-30" y="-38" width="197" height="89" as="geometry" />
        </mxCell>
        <mxCell id="fNWP0Sq-t-IBXWrhdog1-25" style="edgeStyle=orthogonalEdgeStyle;rounded=0;orthogonalLoop=1;jettySize=auto;html=1;exitX=0;exitY=0.5;exitDx=0;exitDy=0;exitPerimeter=0;" edge="1" parent="1" source="5yZGIbC2o9t2ciNZHrLw-2" target="nzCOSUnBj68kPDdlYN6e-1">
          <mxGeometry relative="1" as="geometry">
            <Array as="points">
              <mxPoint x="-272" y="94" />
            </Array>
          </mxGeometry>
        </mxCell>
        <mxCell id="5yZGIbC2o9t2ciNZHrLw-2" value="&quot;FizzBuzz&quot;" style="strokeWidth=2;html=1;shape=mxgraph.flowchart.display;whiteSpace=wrap;strokeColor=#E07A5F;fontColor=#393C56;fillColor=#F2CC8F;" parent="1" vertex="1">
          <mxGeometry x="-161" y="80" width="81" height="27" as="geometry" />
        </mxCell>
        <mxCell id="5yZGIbC2o9t2ciNZHrLw-3" value="numero % 3 = 0" style="strokeWidth=2;html=1;shape=mxgraph.flowchart.decision;whiteSpace=wrap;strokeColor=#E07A5F;fontColor=#393C56;fillColor=#F2CC8F;" parent="1" vertex="1">
          <mxGeometry x="17" y="102" width="123" height="56" as="geometry" />
        </mxCell>
        <mxCell id="5yZGIbC2o9t2ciNZHrLw-4" value="&quot;Fizz&quot;" style="strokeWidth=2;html=1;shape=mxgraph.flowchart.display;whiteSpace=wrap;strokeColor=#E07A5F;fontColor=#393C56;fillColor=#F2CC8F;" parent="1" vertex="1">
          <mxGeometry x="-96" y="172" width="88" height="43" as="geometry" />
        </mxCell>
        <mxCell id="5yZGIbC2o9t2ciNZHrLw-5" value="numero % 5 = 0" style="strokeWidth=2;html=1;shape=mxgraph.flowchart.decision;whiteSpace=wrap;strokeColor=#E07A5F;fontColor=#393C56;fillColor=#F2CC8F;" parent="1" vertex="1">
          <mxGeometry x="28" y="199" width="101" height="88" as="geometry" />
        </mxCell>
        <mxCell id="5yZGIbC2o9t2ciNZHrLw-6" value="&quot;Buzz&quot;" style="strokeWidth=2;html=1;shape=mxgraph.flowchart.display;whiteSpace=wrap;strokeColor=#E07A5F;fontColor=#393C56;fillColor=#F2CC8F;" parent="1" vertex="1">
          <mxGeometry x="-52" y="299" width="53" height="34" as="geometry" />
        </mxCell>
        <mxCell id="5yZGIbC2o9t2ciNZHrLw-7" value="&quot;No es divisible entre 3 ni 5&quot;" style="strokeWidth=2;html=1;shape=mxgraph.flowchart.display;whiteSpace=wrap;strokeColor=#E07A5F;fontColor=#393C56;fillColor=#F2CC8F;" parent="1" vertex="1">
          <mxGeometry x="4" y="366" width="100" height="60" as="geometry" />
        </mxCell>
        <mxCell id="fNWP0Sq-t-IBXWrhdog1-1" style="edgeStyle=orthogonalEdgeStyle;rounded=0;orthogonalLoop=1;jettySize=auto;html=1;exitX=1;exitY=0.5;exitDx=0;exitDy=0;exitPerimeter=0;entryX=0;entryY=0.5;entryDx=0;entryDy=0;entryPerimeter=0;" edge="1" parent="1" source="LdQxJW9kwFtZR3ZvgxaN-3" target="nzCOSUnBj68kPDdlYN6e-2">
          <mxGeometry relative="1" as="geometry" />
        </mxCell>
        <mxCell id="fNWP0Sq-t-IBXWrhdog1-4" value="Verdadero" style="text;html=1;align=center;verticalAlign=middle;resizable=0;points=[];autosize=1;strokeColor=none;fillColor=none;" vertex="1" parent="1">
          <mxGeometry x="-121" y="26" width="73" height="26" as="geometry" />
        </mxCell>
        <mxCell id="fNWP0Sq-t-IBXWrhdog1-5" value="" style="endArrow=none;html=1;rounded=0;exitX=0;exitY=1;exitDx=0;exitDy=0;entryX=1;entryY=0.487;entryDx=0;entryDy=0;entryPerimeter=0;" edge="1" parent="1" source="5yZGIbC2o9t2ciNZHrLw-1" target="fNWP0Sq-t-IBXWrhdog1-4">
          <mxGeometry width="50" height="50" relative="1" as="geometry">
            <mxPoint x="-74" y="218" as="sourcePoint" />
            <mxPoint x="-24" y="168" as="targetPoint" />
          </mxGeometry>
        </mxCell>
        <mxCell id="fNWP0Sq-t-IBXWrhdog1-6" value="" style="endArrow=classic;html=1;rounded=0;exitX=0.416;exitY=1.103;exitDx=0;exitDy=0;exitPerimeter=0;entryX=0.663;entryY=-0.025;entryDx=0;entryDy=0;entryPerimeter=0;" edge="1" parent="1" source="fNWP0Sq-t-IBXWrhdog1-4" target="5yZGIbC2o9t2ciNZHrLw-2">
          <mxGeometry width="50" height="50" relative="1" as="geometry">
            <mxPoint x="-74" y="218" as="sourcePoint" />
            <mxPoint x="-24" y="168" as="targetPoint" />
          </mxGeometry>
        </mxCell>
        <mxCell id="fNWP0Sq-t-IBXWrhdog1-7" value="Falso" style="text;html=1;align=center;verticalAlign=middle;resizable=0;points=[];autosize=1;strokeColor=none;fillColor=none;" vertex="1" parent="1">
          <mxGeometry x="211" y="-3" width="47" height="26" as="geometry" />
        </mxCell>
        <mxCell id="fNWP0Sq-t-IBXWrhdog1-8" value="" style="endArrow=none;html=1;rounded=0;exitX=1;exitY=0.5;exitDx=0;exitDy=0;entryX=0.007;entryY=0.423;entryDx=0;entryDy=0;entryPerimeter=0;" edge="1" parent="1" source="5yZGIbC2o9t2ciNZHrLw-1" target="fNWP0Sq-t-IBXWrhdog1-7">
          <mxGeometry width="50" height="50" relative="1" as="geometry">
            <mxPoint x="-74" y="218" as="sourcePoint" />
            <mxPoint x="-24" y="168" as="targetPoint" />
          </mxGeometry>
        </mxCell>
        <mxCell id="fNWP0Sq-t-IBXWrhdog1-9" value="" style="endArrow=classic;html=1;rounded=0;exitX=0.007;exitY=1.038;exitDx=0;exitDy=0;exitPerimeter=0;entryX=0.734;entryY=0.235;entryDx=0;entryDy=0;entryPerimeter=0;" edge="1" parent="1" source="fNWP0Sq-t-IBXWrhdog1-7" target="5yZGIbC2o9t2ciNZHrLw-3">
          <mxGeometry width="50" height="50" relative="1" as="geometry">
            <mxPoint x="-74" y="218" as="sourcePoint" />
            <mxPoint x="-24" y="168" as="targetPoint" />
          </mxGeometry>
        </mxCell>
        <mxCell id="fNWP0Sq-t-IBXWrhdog1-11" value="Verdadero" style="text;html=1;align=center;verticalAlign=middle;resizable=0;points=[];autosize=1;strokeColor=none;fillColor=none;" vertex="1" parent="1">
          <mxGeometry x="-85" y="117" width="73" height="26" as="geometry" />
        </mxCell>
        <mxCell id="fNWP0Sq-t-IBXWrhdog1-12" value="" style="endArrow=none;html=1;rounded=0;exitX=0;exitY=0.5;exitDx=0;exitDy=0;exitPerimeter=0;entryX=0.991;entryY=0.551;entryDx=0;entryDy=0;entryPerimeter=0;" edge="1" parent="1" source="5yZGIbC2o9t2ciNZHrLw-3" target="fNWP0Sq-t-IBXWrhdog1-11">
          <mxGeometry width="50" height="50" relative="1" as="geometry">
            <mxPoint x="-74" y="218" as="sourcePoint" />
            <mxPoint x="-24" y="168" as="targetPoint" />
          </mxGeometry>
        </mxCell>
        <mxCell id="fNWP0Sq-t-IBXWrhdog1-13" value="" style="endArrow=classic;html=1;rounded=0;exitX=0.489;exitY=1.09;exitDx=0;exitDy=0;exitPerimeter=0;" edge="1" parent="1" source="fNWP0Sq-t-IBXWrhdog1-11">
          <mxGeometry width="50" height="50" relative="1" as="geometry">
            <mxPoint x="-74" y="218" as="sourcePoint" />
            <mxPoint x="-49" y="170" as="targetPoint" />
          </mxGeometry>
        </mxCell>
        <mxCell id="fNWP0Sq-t-IBXWrhdog1-14" value="Falso" style="text;html=1;align=center;verticalAlign=middle;resizable=0;points=[];autosize=1;strokeColor=none;fillColor=none;" vertex="1" parent="1">
          <mxGeometry x="173" y="114" width="47" height="26" as="geometry" />
        </mxCell>
        <mxCell id="fNWP0Sq-t-IBXWrhdog1-15" value="" style="endArrow=none;html=1;rounded=0;exitX=1;exitY=0.5;exitDx=0;exitDy=0;exitPerimeter=0;entryX=-0.064;entryY=0.615;entryDx=0;entryDy=0;entryPerimeter=0;" edge="1" parent="1" source="5yZGIbC2o9t2ciNZHrLw-3" target="fNWP0Sq-t-IBXWrhdog1-14">
          <mxGeometry width="50" height="50" relative="1" as="geometry">
            <mxPoint x="-74" y="218" as="sourcePoint" />
            <mxPoint x="-24" y="168" as="targetPoint" />
          </mxGeometry>
        </mxCell>
        <mxCell id="fNWP0Sq-t-IBXWrhdog1-17" value="" style="endArrow=classic;html=1;rounded=0;exitX=0.291;exitY=1.051;exitDx=0;exitDy=0;exitPerimeter=0;entryX=0.739;entryY=0.223;entryDx=0;entryDy=0;entryPerimeter=0;" edge="1" parent="1" source="fNWP0Sq-t-IBXWrhdog1-14" target="5yZGIbC2o9t2ciNZHrLw-5">
          <mxGeometry width="50" height="50" relative="1" as="geometry">
            <mxPoint x="-74" y="218" as="sourcePoint" />
            <mxPoint x="-24" y="168" as="targetPoint" />
          </mxGeometry>
        </mxCell>
        <mxCell id="fNWP0Sq-t-IBXWrhdog1-18" value="Verdadero" style="text;html=1;align=center;verticalAlign=middle;resizable=0;points=[];autosize=1;strokeColor=none;fillColor=none;" vertex="1" parent="1">
          <mxGeometry x="-62" y="235" width="73" height="26" as="geometry" />
        </mxCell>
        <mxCell id="fNWP0Sq-t-IBXWrhdog1-19" value="" style="endArrow=none;html=1;rounded=0;exitX=0;exitY=0.5;exitDx=0;exitDy=0;exitPerimeter=0;entryX=1.023;entryY=0.346;entryDx=0;entryDy=0;entryPerimeter=0;" edge="1" parent="1" source="5yZGIbC2o9t2ciNZHrLw-5" target="fNWP0Sq-t-IBXWrhdog1-18">
          <mxGeometry width="50" height="50" relative="1" as="geometry">
            <mxPoint x="-74" y="218" as="sourcePoint" />
            <mxPoint x="-24" y="168" as="targetPoint" />
          </mxGeometry>
        </mxCell>
        <mxCell id="fNWP0Sq-t-IBXWrhdog1-20" value="" style="endArrow=classic;html=1;rounded=0;exitX=0.502;exitY=1.064;exitDx=0;exitDy=0;exitPerimeter=0;" edge="1" parent="1" source="fNWP0Sq-t-IBXWrhdog1-18">
          <mxGeometry width="50" height="50" relative="1" as="geometry">
            <mxPoint x="-74" y="218" as="sourcePoint" />
            <mxPoint x="-24" y="295" as="targetPoint" />
          </mxGeometry>
        </mxCell>
        <mxCell id="fNWP0Sq-t-IBXWrhdog1-22" value="Falso" style="text;html=1;align=center;verticalAlign=middle;resizable=0;points=[];autosize=1;strokeColor=none;fillColor=none;" vertex="1" parent="1">
          <mxGeometry x="179" y="230" width="47" height="26" as="geometry" />
        </mxCell>
        <mxCell id="fNWP0Sq-t-IBXWrhdog1-23" value="" style="endArrow=none;html=1;rounded=0;exitX=1;exitY=0.5;exitDx=0;exitDy=0;exitPerimeter=0;" edge="1" parent="1" source="5yZGIbC2o9t2ciNZHrLw-5">
          <mxGeometry width="50" height="50" relative="1" as="geometry">
            <mxPoint x="-74" y="218" as="sourcePoint" />
            <mxPoint x="175" y="243" as="targetPoint" />
          </mxGeometry>
        </mxCell>
        <mxCell id="fNWP0Sq-t-IBXWrhdog1-24" value="" style="endArrow=classic;html=1;rounded=0;exitX=0.035;exitY=1.026;exitDx=0;exitDy=0;exitPerimeter=0;entryX=0.81;entryY=-0.011;entryDx=0;entryDy=0;entryPerimeter=0;" edge="1" parent="1" source="fNWP0Sq-t-IBXWrhdog1-22" target="5yZGIbC2o9t2ciNZHrLw-7">
          <mxGeometry width="50" height="50" relative="1" as="geometry">
            <mxPoint x="-74" y="218" as="sourcePoint" />
            <mxPoint x="-24" y="168" as="targetPoint" />
          </mxGeometry>
        </mxCell>
        <mxCell id="fNWP0Sq-t-IBXWrhdog1-27" style="edgeStyle=orthogonalEdgeStyle;rounded=0;orthogonalLoop=1;jettySize=auto;html=1;exitX=0;exitY=0.5;exitDx=0;exitDy=0;exitPerimeter=0;entryX=0.5;entryY=0;entryDx=0;entryDy=0;entryPerimeter=0;" edge="1" parent="1" source="5yZGIbC2o9t2ciNZHrLw-4" target="nzCOSUnBj68kPDdlYN6e-1">
          <mxGeometry relative="1" as="geometry" />
        </mxCell>
        <mxCell id="fNWP0Sq-t-IBXWrhdog1-28" style="edgeStyle=orthogonalEdgeStyle;rounded=0;orthogonalLoop=1;jettySize=auto;html=1;exitX=0;exitY=0.5;exitDx=0;exitDy=0;exitPerimeter=0;entryX=0.89;entryY=0.11;entryDx=0;entryDy=0;entryPerimeter=0;" edge="1" parent="1" source="5yZGIbC2o9t2ciNZHrLw-6" target="nzCOSUnBj68kPDdlYN6e-1">
          <mxGeometry relative="1" as="geometry" />
        </mxCell>
        <mxCell id="fNWP0Sq-t-IBXWrhdog1-29" style="edgeStyle=orthogonalEdgeStyle;rounded=0;orthogonalLoop=1;jettySize=auto;html=1;exitX=0;exitY=0.5;exitDx=0;exitDy=0;exitPerimeter=0;entryX=1;entryY=0.5;entryDx=0;entryDy=0;entryPerimeter=0;" edge="1" parent="1" source="5yZGIbC2o9t2ciNZHrLw-7" target="nzCOSUnBj68kPDdlYN6e-1">
          <mxGeometry relative="1" as="geometry" />
        </mxCell>
      </root>
    </mxGraphModel>
  </diagram>
  <diagram id="rUgubrHfoOomrXKHmC7i" name="1.3E. Pida 100 números al usuario y muestre la suma de todos">
    <mxGraphModel dx="1186" dy="863" grid="0" gridSize="10" guides="1" tooltips="1" connect="1" arrows="1" fold="1" page="0" pageScale="1" pageWidth="827" pageHeight="1169" math="0" shadow="0">
      <root>
        <mxCell id="0" />
        <mxCell id="1" parent="0" />
        <mxCell id="0c0PlzX8_Oc6vafipisx-1" value="Fin" style="strokeWidth=2;html=1;shape=mxgraph.flowchart.terminator;whiteSpace=wrap;labelBackgroundColor=none;fillColor=#F2CC8F;strokeColor=#E07A5F;fontColor=#393C56;" parent="1" vertex="1">
          <mxGeometry x="38" y="360" width="51" height="26" as="geometry" />
        </mxCell>
        <mxCell id="hoYptzQu-yhl-ZzZs8Nl-10" style="edgeStyle=orthogonalEdgeStyle;rounded=0;orthogonalLoop=1;jettySize=auto;html=1;exitX=1;exitY=0.5;exitDx=0;exitDy=0;exitPerimeter=0;entryX=0;entryY=0.5;entryDx=0;entryDy=0;strokeColor=#E07A5F;fontColor=#393C56;fillColor=#F2CC8F;" parent="1" source="0c0PlzX8_Oc6vafipisx-2" target="hoYptzQu-yhl-ZzZs8Nl-1" edge="1">
          <mxGeometry relative="1" as="geometry" />
        </mxCell>
        <mxCell id="0c0PlzX8_Oc6vafipisx-2" value="Inicio" style="strokeWidth=2;html=1;shape=mxgraph.flowchart.terminator;whiteSpace=wrap;labelBackgroundColor=none;fillColor=#F2CC8F;strokeColor=#E07A5F;fontColor=#393C56;" parent="1" vertex="1">
          <mxGeometry x="-148" y="-19" width="65" height="27" as="geometry" />
        </mxCell>
        <mxCell id="hoYptzQu-yhl-ZzZs8Nl-11" style="edgeStyle=orthogonalEdgeStyle;rounded=0;orthogonalLoop=1;jettySize=auto;html=1;exitX=1;exitY=0.5;exitDx=0;exitDy=0;entryX=0;entryY=0.5;entryDx=0;entryDy=0;strokeColor=#E07A5F;fontColor=#393C56;fillColor=#F2CC8F;" parent="1" source="hoYptzQu-yhl-ZzZs8Nl-1" target="hoYptzQu-yhl-ZzZs8Nl-2" edge="1">
          <mxGeometry relative="1" as="geometry" />
        </mxCell>
        <mxCell id="hoYptzQu-yhl-ZzZs8Nl-1" value="suma = 0" style="rounded=0;whiteSpace=wrap;html=1;strokeColor=#E07A5F;fontColor=#393C56;fillColor=#F2CC8F;" parent="1" vertex="1">
          <mxGeometry x="-34.5" y="-13.5" width="79" height="16" as="geometry" />
        </mxCell>
        <mxCell id="hoYptzQu-yhl-ZzZs8Nl-12" style="edgeStyle=orthogonalEdgeStyle;rounded=0;orthogonalLoop=1;jettySize=auto;html=1;exitX=0.5;exitY=1;exitDx=0;exitDy=0;entryX=0.5;entryY=0;entryDx=0;entryDy=0;strokeColor=#E07A5F;fontColor=#393C56;fillColor=#F2CC8F;" parent="1" source="hoYptzQu-yhl-ZzZs8Nl-2" target="hoYptzQu-yhl-ZzZs8Nl-3" edge="1">
          <mxGeometry relative="1" as="geometry" />
        </mxCell>
        <mxCell id="hoYptzQu-yhl-ZzZs8Nl-2" value="contador = 1" style="rounded=0;whiteSpace=wrap;html=1;strokeColor=#E07A5F;fontColor=#393C56;fillColor=#F2CC8F;" parent="1" vertex="1">
          <mxGeometry x="93" y="-14.5" width="86" height="17" as="geometry" />
        </mxCell>
        <mxCell id="hoYptzQu-yhl-ZzZs8Nl-3" value="contador &amp;lt;= 100" style="rhombus;whiteSpace=wrap;html=1;strokeColor=#E07A5F;fontColor=#393C56;fillColor=#F2CC8F;" parent="1" vertex="1">
          <mxGeometry x="66.5" y="37" width="139" height="47" as="geometry" />
        </mxCell>
        <mxCell id="hoYptzQu-yhl-ZzZs8Nl-19" style="edgeStyle=orthogonalEdgeStyle;rounded=0;orthogonalLoop=1;jettySize=auto;html=1;exitX=0.5;exitY=1;exitDx=0;exitDy=0;exitPerimeter=0;entryX=0.5;entryY=0;entryDx=0;entryDy=0;strokeColor=#E07A5F;fontColor=#393C56;fillColor=#F2CC8F;" parent="1" source="hoYptzQu-yhl-ZzZs8Nl-4" target="hoYptzQu-yhl-ZzZs8Nl-5" edge="1">
          <mxGeometry relative="1" as="geometry" />
        </mxCell>
        <mxCell id="hoYptzQu-yhl-ZzZs8Nl-4" value="&quot;Ingrese número&quot;" style="strokeWidth=2;html=1;shape=mxgraph.flowchart.display;whiteSpace=wrap;strokeColor=#E07A5F;fontColor=#393C56;fillColor=#F2CC8F;" parent="1" vertex="1">
          <mxGeometry x="-81" y="96" width="119" height="23" as="geometry" />
        </mxCell>
        <mxCell id="hoYptzQu-yhl-ZzZs8Nl-5" value="&amp;nbsp;numero" style="shape=parallelogram;perimeter=parallelogramPerimeter;whiteSpace=wrap;html=1;fixedSize=1;strokeColor=#E07A5F;fontColor=#393C56;fillColor=#F2CC8F;" parent="1" vertex="1">
          <mxGeometry x="-70" y="149" width="83" height="16" as="geometry" />
        </mxCell>
        <mxCell id="hoYptzQu-yhl-ZzZs8Nl-21" style="edgeStyle=orthogonalEdgeStyle;rounded=0;orthogonalLoop=1;jettySize=auto;html=1;exitX=0.5;exitY=1;exitDx=0;exitDy=0;entryX=0.5;entryY=0;entryDx=0;entryDy=0;strokeColor=#E07A5F;fontColor=#393C56;fillColor=#F2CC8F;" parent="1" source="hoYptzQu-yhl-ZzZs8Nl-6" target="hoYptzQu-yhl-ZzZs8Nl-7" edge="1">
          <mxGeometry relative="1" as="geometry" />
        </mxCell>
        <mxCell id="hoYptzQu-yhl-ZzZs8Nl-6" value="suma = numero + suma" style="rounded=0;whiteSpace=wrap;html=1;strokeColor=#E07A5F;fontColor=#393C56;fillColor=#F2CC8F;" parent="1" vertex="1">
          <mxGeometry x="-61" y="194" width="149" height="16" as="geometry" />
        </mxCell>
        <mxCell id="hoYptzQu-yhl-ZzZs8Nl-22" style="edgeStyle=orthogonalEdgeStyle;rounded=0;orthogonalLoop=1;jettySize=auto;html=1;exitX=1;exitY=0.5;exitDx=0;exitDy=0;strokeColor=#E07A5F;fontColor=#393C56;fillColor=#F2CC8F;" parent="1" source="hoYptzQu-yhl-ZzZs8Nl-7" edge="1">
          <mxGeometry relative="1" as="geometry">
            <mxPoint x="137.3333740234375" y="85.33331298828125" as="targetPoint" />
          </mxGeometry>
        </mxCell>
        <mxCell id="hoYptzQu-yhl-ZzZs8Nl-7" value="contador = contador + 1" style="rounded=0;whiteSpace=wrap;html=1;strokeColor=#E07A5F;fontColor=#393C56;fillColor=#F2CC8F;" parent="1" vertex="1">
          <mxGeometry x="-51" y="246" width="140" height="19" as="geometry" />
        </mxCell>
        <mxCell id="hoYptzQu-yhl-ZzZs8Nl-25" style="edgeStyle=orthogonalEdgeStyle;rounded=0;orthogonalLoop=1;jettySize=auto;html=1;exitX=0.2;exitY=0.86;exitDx=0;exitDy=0;exitPerimeter=0;strokeColor=#E07A5F;fontColor=#393C56;fillColor=#F2CC8F;" parent="1" source="hoYptzQu-yhl-ZzZs8Nl-8" target="0c0PlzX8_Oc6vafipisx-1" edge="1">
          <mxGeometry relative="1" as="geometry" />
        </mxCell>
        <mxCell id="hoYptzQu-yhl-ZzZs8Nl-8" value="&quot;La suma de los 100 números ingresados es&quot;&amp;nbsp;suma" style="strokeWidth=2;html=1;shape=mxgraph.flowchart.display;whiteSpace=wrap;strokeColor=#E07A5F;fontColor=#393C56;fillColor=#F2CC8F;" parent="1" vertex="1">
          <mxGeometry x="123" y="268" width="299" height="43" as="geometry" />
        </mxCell>
        <mxCell id="hoYptzQu-yhl-ZzZs8Nl-13" value="Verdadero" style="text;html=1;align=center;verticalAlign=middle;resizable=0;points=[];autosize=1;strokeColor=none;fillColor=none;fontColor=#393C56;" parent="1" vertex="1">
          <mxGeometry x="-81" y="45" width="73" height="26" as="geometry" />
        </mxCell>
        <mxCell id="hoYptzQu-yhl-ZzZs8Nl-14" value="Falso" style="text;html=1;align=center;verticalAlign=middle;resizable=0;points=[];autosize=1;strokeColor=none;fillColor=none;fontColor=#393C56;" parent="1" vertex="1">
          <mxGeometry x="249" y="47.5" width="47" height="26" as="geometry" />
        </mxCell>
        <mxCell id="hoYptzQu-yhl-ZzZs8Nl-16" value="" style="endArrow=none;html=1;rounded=0;strokeColor=#E07A5F;fontColor=#393C56;fillColor=#F2CC8F;exitX=0;exitY=0.5;exitDx=0;exitDy=0;entryX=1.027;entryY=0.558;entryDx=0;entryDy=0;entryPerimeter=0;" parent="1" source="hoYptzQu-yhl-ZzZs8Nl-3" target="hoYptzQu-yhl-ZzZs8Nl-13" edge="1">
          <mxGeometry width="50" height="50" relative="1" as="geometry">
            <mxPoint x="175" y="225" as="sourcePoint" />
            <mxPoint x="225" y="175" as="targetPoint" />
          </mxGeometry>
        </mxCell>
        <mxCell id="hoYptzQu-yhl-ZzZs8Nl-20" style="edgeStyle=orthogonalEdgeStyle;rounded=0;orthogonalLoop=1;jettySize=auto;html=1;exitX=0.5;exitY=1;exitDx=0;exitDy=0;entryX=0.394;entryY=0.104;entryDx=0;entryDy=0;entryPerimeter=0;strokeColor=#E07A5F;fontColor=#393C56;fillColor=#F2CC8F;" parent="1" source="hoYptzQu-yhl-ZzZs8Nl-5" target="hoYptzQu-yhl-ZzZs8Nl-6" edge="1">
          <mxGeometry relative="1" as="geometry" />
        </mxCell>
        <mxCell id="hoYptzQu-yhl-ZzZs8Nl-23" value="" style="endArrow=none;html=1;rounded=0;strokeColor=#E07A5F;fontColor=#393C56;fillColor=#F2CC8F;exitX=1;exitY=0.5;exitDx=0;exitDy=0;entryX=0.035;entryY=0.532;entryDx=0;entryDy=0;entryPerimeter=0;" parent="1" source="hoYptzQu-yhl-ZzZs8Nl-3" target="hoYptzQu-yhl-ZzZs8Nl-14" edge="1">
          <mxGeometry width="50" height="50" relative="1" as="geometry">
            <mxPoint x="175" y="225" as="sourcePoint" />
            <mxPoint x="225" y="175" as="targetPoint" />
          </mxGeometry>
        </mxCell>
        <mxCell id="hoYptzQu-yhl-ZzZs8Nl-24" value="" style="endArrow=classic;html=1;rounded=0;strokeColor=#E07A5F;fontColor=#393C56;fillColor=#F2CC8F;exitX=0.489;exitY=1.019;exitDx=0;exitDy=0;exitPerimeter=0;" parent="1" source="hoYptzQu-yhl-ZzZs8Nl-14" edge="1">
          <mxGeometry width="50" height="50" relative="1" as="geometry">
            <mxPoint x="175" y="225" as="sourcePoint" />
            <mxPoint x="272" y="263" as="targetPoint" />
          </mxGeometry>
        </mxCell>
        <mxCell id="7wdDBFOhkCVG6rVii3wg-2" value="" style="endArrow=classic;html=1;rounded=0;strokeColor=#E07A5F;fontColor=#393C56;fillColor=#F2CC8F;exitX=0.516;exitY=1.167;exitDx=0;exitDy=0;exitPerimeter=0;entryX=0.317;entryY=0.058;entryDx=0;entryDy=0;entryPerimeter=0;" parent="1" source="hoYptzQu-yhl-ZzZs8Nl-13" target="hoYptzQu-yhl-ZzZs8Nl-4" edge="1">
          <mxGeometry width="50" height="50" relative="1" as="geometry">
            <mxPoint x="175" y="225" as="sourcePoint" />
            <mxPoint x="225" y="175" as="targetPoint" />
          </mxGeometry>
        </mxCell>
      </root>
    </mxGraphModel>
  </diagram>
  <diagram id="WwkJ0nS0N5tcTeBhN0BZ" name="1.4E. Pida 100 números al usuario y muestre el mayor de todos">
    <mxGraphModel dx="1186" dy="863" grid="0" gridSize="10" guides="1" tooltips="1" connect="1" arrows="1" fold="1" page="0" pageScale="1" pageWidth="827" pageHeight="1169" math="0" shadow="0">
      <root>
        <mxCell id="0" />
        <mxCell id="1" parent="0" />
        <mxCell id="geLHMkp_r96uUhEcGQF_-1" value="Fin" style="strokeWidth=2;html=1;shape=mxgraph.flowchart.terminator;whiteSpace=wrap;strokeColor=#E07A5F;fontColor=#393C56;fillColor=#F2CC8F;" parent="1" vertex="1">
          <mxGeometry x="119" y="309" width="65" height="24" as="geometry" />
        </mxCell>
        <mxCell id="geLHMkp_r96uUhEcGQF_-2" value="Inicio" style="strokeWidth=2;html=1;shape=mxgraph.flowchart.terminator;whiteSpace=wrap;strokeColor=#E07A5F;fontColor=#393C56;fillColor=#F2CC8F;" parent="1" vertex="1">
          <mxGeometry x="-152" y="-16" width="60" height="23" as="geometry" />
        </mxCell>
        <mxCell id="geLHMkp_r96uUhEcGQF_-3" style="edgeStyle=orthogonalEdgeStyle;rounded=0;orthogonalLoop=1;jettySize=auto;html=1;exitX=1;exitY=0.5;exitDx=0;exitDy=0;strokeColor=#E07A5F;fontColor=#393C56;fillColor=#F2CC8F;" parent="1" source="geLHMkp_r96uUhEcGQF_-4" edge="1">
          <mxGeometry relative="1" as="geometry">
            <mxPoint x="106.66668701171875" y="-5" as="targetPoint" />
          </mxGeometry>
        </mxCell>
        <mxCell id="geLHMkp_r96uUhEcGQF_-4" value="mayor = -9999999" style="rounded=0;whiteSpace=wrap;html=1;strokeColor=#E07A5F;fontColor=#393C56;fillColor=#F2CC8F;" parent="1" vertex="1">
          <mxGeometry x="-41" y="-16" width="111" height="21" as="geometry" />
        </mxCell>
        <mxCell id="geLHMkp_r96uUhEcGQF_-5" style="edgeStyle=orthogonalEdgeStyle;rounded=0;orthogonalLoop=1;jettySize=auto;html=1;exitX=0.5;exitY=1;exitDx=0;exitDy=0;entryX=0.5;entryY=0;entryDx=0;entryDy=0;strokeColor=#E07A5F;fontColor=#393C56;fillColor=#F2CC8F;" parent="1" source="geLHMkp_r96uUhEcGQF_-6" target="geLHMkp_r96uUhEcGQF_-7" edge="1">
          <mxGeometry relative="1" as="geometry" />
        </mxCell>
        <mxCell id="geLHMkp_r96uUhEcGQF_-6" value="contador = 1" style="rounded=0;whiteSpace=wrap;html=1;strokeColor=#E07A5F;fontColor=#393C56;fillColor=#F2CC8F;" parent="1" vertex="1">
          <mxGeometry x="108" y="-16" width="99" height="21" as="geometry" />
        </mxCell>
        <mxCell id="geLHMkp_r96uUhEcGQF_-7" value="contador &amp;lt;= 100" style="rhombus;whiteSpace=wrap;html=1;strokeColor=#E07A5F;fontColor=#393C56;fillColor=#F2CC8F;" parent="1" vertex="1">
          <mxGeometry x="102.5" y="45" width="110" height="41" as="geometry" />
        </mxCell>
        <mxCell id="geLHMkp_r96uUhEcGQF_-8" value="" style="endArrow=classic;html=1;rounded=0;strokeColor=#E07A5F;fontColor=#393C56;fillColor=#F2CC8F;exitX=1;exitY=0.5;exitDx=0;exitDy=0;exitPerimeter=0;entryX=0;entryY=0.5;entryDx=0;entryDy=0;" parent="1" source="geLHMkp_r96uUhEcGQF_-2" target="geLHMkp_r96uUhEcGQF_-4" edge="1">
          <mxGeometry width="50" height="50" relative="1" as="geometry">
            <mxPoint x="175" y="225" as="sourcePoint" />
            <mxPoint x="225" y="175" as="targetPoint" />
          </mxGeometry>
        </mxCell>
        <mxCell id="geLHMkp_r96uUhEcGQF_-9" value="Verdadero" style="text;html=1;align=center;verticalAlign=middle;resizable=0;points=[];autosize=1;strokeColor=none;fillColor=none;fontColor=#393C56;" parent="1" vertex="1">
          <mxGeometry x="-18" y="52.5" width="73" height="26" as="geometry" />
        </mxCell>
        <mxCell id="geLHMkp_r96uUhEcGQF_-10" value="Falso" style="text;html=1;align=center;verticalAlign=middle;resizable=0;points=[];autosize=1;strokeColor=none;fillColor=none;fontColor=#393C56;" parent="1" vertex="1">
          <mxGeometry x="279" y="52.5" width="47" height="26" as="geometry" />
        </mxCell>
        <mxCell id="geLHMkp_r96uUhEcGQF_-11" style="edgeStyle=orthogonalEdgeStyle;rounded=0;orthogonalLoop=1;jettySize=auto;html=1;exitX=0.5;exitY=1;exitDx=0;exitDy=0;exitPerimeter=0;entryX=0.5;entryY=0;entryDx=0;entryDy=0;strokeColor=#E07A5F;fontColor=#393C56;fillColor=#F2CC8F;" parent="1" source="geLHMkp_r96uUhEcGQF_-12" target="geLHMkp_r96uUhEcGQF_-14" edge="1">
          <mxGeometry relative="1" as="geometry" />
        </mxCell>
        <mxCell id="geLHMkp_r96uUhEcGQF_-12" value="&quot;Ingrese número&quot;" style="strokeWidth=2;html=1;shape=mxgraph.flowchart.display;whiteSpace=wrap;strokeColor=#E07A5F;fontColor=#393C56;fillColor=#F2CC8F;" parent="1" vertex="1">
          <mxGeometry x="-169" y="43.5" width="104" height="44" as="geometry" />
        </mxCell>
        <mxCell id="geLHMkp_r96uUhEcGQF_-13" style="edgeStyle=orthogonalEdgeStyle;rounded=0;orthogonalLoop=1;jettySize=auto;html=1;exitX=0.5;exitY=1;exitDx=0;exitDy=0;entryX=0.5;entryY=0;entryDx=0;entryDy=0;strokeColor=#E07A5F;fontColor=#393C56;fillColor=#F2CC8F;" parent="1" source="geLHMkp_r96uUhEcGQF_-14" target="geLHMkp_r96uUhEcGQF_-15" edge="1">
          <mxGeometry relative="1" as="geometry" />
        </mxCell>
        <mxCell id="geLHMkp_r96uUhEcGQF_-14" value="numero" style="shape=parallelogram;perimeter=parallelogramPerimeter;whiteSpace=wrap;html=1;fixedSize=1;strokeColor=#E07A5F;fontColor=#393C56;fillColor=#F2CC8F;" parent="1" vertex="1">
          <mxGeometry x="-158.5" y="111" width="83" height="21" as="geometry" />
        </mxCell>
        <mxCell id="geLHMkp_r96uUhEcGQF_-15" value="mayor &amp;lt; numero" style="rhombus;whiteSpace=wrap;html=1;strokeColor=#E07A5F;fontColor=#393C56;fillColor=#F2CC8F;" parent="1" vertex="1">
          <mxGeometry x="-169" y="150" width="106" height="55" as="geometry" />
        </mxCell>
        <mxCell id="geLHMkp_r96uUhEcGQF_-16" value="Verdadero" style="text;html=1;align=center;verticalAlign=middle;resizable=0;points=[];autosize=1;strokeColor=none;fillColor=none;fontColor=#393C56;" parent="1" vertex="1">
          <mxGeometry x="-270" y="164.5" width="73" height="26" as="geometry" />
        </mxCell>
        <mxCell id="geLHMkp_r96uUhEcGQF_-17" value="Falso" style="text;html=1;align=center;verticalAlign=middle;resizable=0;points=[];autosize=1;strokeColor=none;fillColor=none;fontColor=#393C56;" parent="1" vertex="1">
          <mxGeometry x="-24" y="164.5" width="47" height="26" as="geometry" />
        </mxCell>
        <mxCell id="geLHMkp_r96uUhEcGQF_-18" style="edgeStyle=orthogonalEdgeStyle;rounded=0;orthogonalLoop=1;jettySize=auto;html=1;exitX=1;exitY=0.5;exitDx=0;exitDy=0;entryX=0;entryY=0.25;entryDx=0;entryDy=0;strokeColor=#E07A5F;fontColor=#393C56;fillColor=#F2CC8F;" parent="1" source="geLHMkp_r96uUhEcGQF_-19" target="geLHMkp_r96uUhEcGQF_-22" edge="1">
          <mxGeometry relative="1" as="geometry" />
        </mxCell>
        <mxCell id="geLHMkp_r96uUhEcGQF_-19" value="mayor = numero" style="rounded=0;whiteSpace=wrap;html=1;strokeColor=#E07A5F;fontColor=#393C56;fillColor=#F2CC8F;" parent="1" vertex="1">
          <mxGeometry x="-281.5" y="224" width="96" height="23" as="geometry" />
        </mxCell>
        <mxCell id="geLHMkp_r96uUhEcGQF_-20" value="&quot;El número mayor es&quot;&amp;nbsp;mayor" style="strokeWidth=2;html=1;shape=mxgraph.flowchart.display;whiteSpace=wrap;strokeColor=#E07A5F;fontColor=#393C56;fillColor=#F2CC8F;" parent="1" vertex="1">
          <mxGeometry x="217" y="202" width="171" height="67" as="geometry" />
        </mxCell>
        <mxCell id="geLHMkp_r96uUhEcGQF_-21" style="edgeStyle=orthogonalEdgeStyle;rounded=0;orthogonalLoop=1;jettySize=auto;html=1;exitX=0.75;exitY=0;exitDx=0;exitDy=0;entryX=0.5;entryY=1;entryDx=0;entryDy=0;strokeColor=#E07A5F;fontColor=#393C56;fillColor=#F2CC8F;" parent="1" source="geLHMkp_r96uUhEcGQF_-22" target="geLHMkp_r96uUhEcGQF_-7" edge="1">
          <mxGeometry relative="1" as="geometry" />
        </mxCell>
        <mxCell id="geLHMkp_r96uUhEcGQF_-22" value="contador = contador + 1" style="rounded=0;whiteSpace=wrap;html=1;strokeColor=#E07A5F;fontColor=#393C56;fillColor=#F2CC8F;" parent="1" vertex="1">
          <mxGeometry x="-52.5" y="230" width="142" height="21" as="geometry" />
        </mxCell>
        <mxCell id="geLHMkp_r96uUhEcGQF_-23" value="" style="endArrow=none;html=1;rounded=0;strokeColor=#E07A5F;fontColor=#393C56;fillColor=#F2CC8F;exitX=0;exitY=0.5;exitDx=0;exitDy=0;entryX=1.014;entryY=0.545;entryDx=0;entryDy=0;entryPerimeter=0;" parent="1" source="geLHMkp_r96uUhEcGQF_-7" target="geLHMkp_r96uUhEcGQF_-9" edge="1">
          <mxGeometry width="50" height="50" relative="1" as="geometry">
            <mxPoint x="6" y="225" as="sourcePoint" />
            <mxPoint x="56" y="175" as="targetPoint" />
          </mxGeometry>
        </mxCell>
        <mxCell id="geLHMkp_r96uUhEcGQF_-24" value="" style="endArrow=classic;html=1;rounded=0;strokeColor=#E07A5F;fontColor=#393C56;fillColor=#F2CC8F;exitX=0.009;exitY=0.494;exitDx=0;exitDy=0;exitPerimeter=0;entryX=1;entryY=0.5;entryDx=0;entryDy=0;entryPerimeter=0;" parent="1" source="geLHMkp_r96uUhEcGQF_-9" target="geLHMkp_r96uUhEcGQF_-12" edge="1">
          <mxGeometry width="50" height="50" relative="1" as="geometry">
            <mxPoint x="6" y="225" as="sourcePoint" />
            <mxPoint x="56" y="175" as="targetPoint" />
          </mxGeometry>
        </mxCell>
        <mxCell id="geLHMkp_r96uUhEcGQF_-25" value="" style="endArrow=none;html=1;rounded=0;strokeColor=#E07A5F;fontColor=#393C56;fillColor=#F2CC8F;exitX=0;exitY=0.5;exitDx=0;exitDy=0;" parent="1" source="geLHMkp_r96uUhEcGQF_-15" target="geLHMkp_r96uUhEcGQF_-16" edge="1">
          <mxGeometry width="50" height="50" relative="1" as="geometry">
            <mxPoint x="6" y="225" as="sourcePoint" />
            <mxPoint x="56" y="175" as="targetPoint" />
          </mxGeometry>
        </mxCell>
        <mxCell id="geLHMkp_r96uUhEcGQF_-26" value="" style="endArrow=none;html=1;rounded=0;strokeColor=#E07A5F;fontColor=#393C56;fillColor=#F2CC8F;exitX=1;exitY=0.5;exitDx=0;exitDy=0;entryX=-0.021;entryY=0.494;entryDx=0;entryDy=0;entryPerimeter=0;" parent="1" source="geLHMkp_r96uUhEcGQF_-15" target="geLHMkp_r96uUhEcGQF_-17" edge="1">
          <mxGeometry width="50" height="50" relative="1" as="geometry">
            <mxPoint x="6" y="225" as="sourcePoint" />
            <mxPoint x="56" y="175" as="targetPoint" />
          </mxGeometry>
        </mxCell>
        <mxCell id="geLHMkp_r96uUhEcGQF_-27" value="" style="endArrow=classic;html=1;rounded=0;strokeColor=#E07A5F;fontColor=#393C56;fillColor=#F2CC8F;exitX=0.502;exitY=1.006;exitDx=0;exitDy=0;exitPerimeter=0;entryX=0.5;entryY=0;entryDx=0;entryDy=0;" parent="1" source="geLHMkp_r96uUhEcGQF_-16" target="geLHMkp_r96uUhEcGQF_-19" edge="1">
          <mxGeometry width="50" height="50" relative="1" as="geometry">
            <mxPoint x="6" y="225" as="sourcePoint" />
            <mxPoint x="56" y="175" as="targetPoint" />
          </mxGeometry>
        </mxCell>
        <mxCell id="geLHMkp_r96uUhEcGQF_-28" value="" style="endArrow=classic;html=1;rounded=0;strokeColor=#E07A5F;fontColor=#393C56;fillColor=#F2CC8F;exitX=0.553;exitY=1.173;exitDx=0;exitDy=0;exitPerimeter=0;entryX=0.384;entryY=0.032;entryDx=0;entryDy=0;entryPerimeter=0;" parent="1" source="geLHMkp_r96uUhEcGQF_-17" target="geLHMkp_r96uUhEcGQF_-22" edge="1">
          <mxGeometry width="50" height="50" relative="1" as="geometry">
            <mxPoint x="6" y="225" as="sourcePoint" />
            <mxPoint x="56" y="175" as="targetPoint" />
          </mxGeometry>
        </mxCell>
        <mxCell id="geLHMkp_r96uUhEcGQF_-29" value="" style="endArrow=none;html=1;rounded=0;strokeColor=#E07A5F;fontColor=#393C56;fillColor=#F2CC8F;exitX=1;exitY=0.5;exitDx=0;exitDy=0;entryX=-0.035;entryY=0.468;entryDx=0;entryDy=0;entryPerimeter=0;" parent="1" source="geLHMkp_r96uUhEcGQF_-7" target="geLHMkp_r96uUhEcGQF_-10" edge="1">
          <mxGeometry width="50" height="50" relative="1" as="geometry">
            <mxPoint x="6" y="225" as="sourcePoint" />
            <mxPoint x="56" y="175" as="targetPoint" />
          </mxGeometry>
        </mxCell>
        <mxCell id="geLHMkp_r96uUhEcGQF_-30" value="" style="endArrow=classic;html=1;rounded=0;strokeColor=#E07A5F;fontColor=#393C56;fillColor=#F2CC8F;exitX=0.518;exitY=1.006;exitDx=0;exitDy=0;exitPerimeter=0;entryX=0.5;entryY=0;entryDx=0;entryDy=0;entryPerimeter=0;" parent="1" source="geLHMkp_r96uUhEcGQF_-10" target="geLHMkp_r96uUhEcGQF_-20" edge="1">
          <mxGeometry width="50" height="50" relative="1" as="geometry">
            <mxPoint x="6" y="225" as="sourcePoint" />
            <mxPoint x="56" y="175" as="targetPoint" />
          </mxGeometry>
        </mxCell>
        <mxCell id="geLHMkp_r96uUhEcGQF_-31" style="edgeStyle=orthogonalEdgeStyle;rounded=0;orthogonalLoop=1;jettySize=auto;html=1;exitX=0.2;exitY=0.86;exitDx=0;exitDy=0;exitPerimeter=0;entryX=0.5;entryY=0;entryDx=0;entryDy=0;entryPerimeter=0;strokeColor=#E07A5F;fontColor=#393C56;fillColor=#F2CC8F;" parent="1" source="geLHMkp_r96uUhEcGQF_-20" target="geLHMkp_r96uUhEcGQF_-1" edge="1">
          <mxGeometry relative="1" as="geometry" />
        </mxCell>
      </root>
    </mxGraphModel>
  </diagram>
</mxfile>
